<svg width="1270.25" height="323.95" xmlns="http://www.w3.org/2000/svg">
  <path fill="#34d399" d="M-43.875-229.636h1358v551.983h-1358z" />
  <g fill="#aeedd6">
    <path
      d="m522.81 176.967.157-.077a30.946 30.946 0 0 0-24.665-17.185l-.088-.01c-.397-.04-.796-.069-1.196-.094-.122-.008-.245-.019-.367-.025-.304-.015-.61-.02-.915-.027-.213-.004-.427-.012-.64-.012-.213 0-.426.008-.64.012-.305.006-.61.012-.915.027-.122.006-.244.017-.366.025-.4.025-.799.054-1.197.094l-.087.01a30.946 30.946 0 0 0-24.666 17.184l.158.078a30.797 30.797 0 0 0-3.16 13.48v91.423h5v-91.422a26.108 26.108 0 0 1 14.554-23.284 25.79 25.79 0 0 1 9.87-2.589l.114-.007c.285-.015.57-.02.854-.025.16-.002.32-.009.48-.009.16 0 .32.007.48.01.285.005.57.01.855.024l.114.007a25.791 25.791 0 0 1 9.87 2.589 26.107 26.107 0 0 1 14.554 23.284v16.375h5v-16.377a30.8 30.8 0 0 0-3.159-13.479Z" />
    <path
      d="M466.723 216.383h44.236v5h-44.236zM466.723 192.009h56.158v5h-56.158zM580.471 282.54h-81.248a2.5 2.5 0 0 1-2.5-2.5v-48.016h5v45.516h76.248v-45.516h5v48.016a2.5 2.5 0 0 1-2.5 2.5z" />
    <path
      d="m586.829 240.963-42.977-42.978a.514.514 0 0 1-.03-.028 5.63 5.63 0 0 0-7.953.003l-43.004 43.003-3.535-3.535 43.002-43.003a10.637 10.637 0 0 1 14.997-.032l.032.032 43.003 43.003zM877.765 281.884h-5v-77.152a1.834 1.834 0 0 0-2.964-1.456l-30.385 23.632a1.827 1.827 0 0 0-.713 1.454v53.248h-5v-53.25a6.8 6.8 0 0 1 2.645-5.4l30.38-23.628a6.834 6.834 0 0 1 11.037 5.409zM898.427 281.884h-5v-118.28a6.86 6.86 0 0 1 .821-3.237 6.839 6.839 0 0 1 9.267-2.771l47.74 25.693a6.816 6.816 0 0 1 3.596 6.024v92.07h-5V189.31a1.825 1.825 0 0 0-.963-1.617l-47.745-25.696a1.84 1.84 0 0 0-2.716 1.613z" />
    <path
      d="M897.865 199.83h26.042v5h-26.042zM895.927 223.008h34.723v5h-34.723zM936.83 156.911h5v20.776h-5zM862.244 234.09h13.021v5h-13.02zM853.564 253.39h21.701v5h-21.7zM842.383 200.392h5v19.098h-5zM306.902 277.54H963.06v5H306.902z" />
    <path
      d="M295.491 293.95a13.91 13.91 0 1 1 13.91-13.91 13.926 13.926 0 0 1-13.91 13.91zm0-22.821a8.91 8.91 0 1 0 8.91 8.91 8.92 8.92 0 0 0-8.91-8.91zM974.468 293.95a13.91 13.91 0 1 1 13.912-13.91 13.926 13.926 0 0 1-13.912 13.91zm0-22.821a8.91 8.91 0 1 0 8.912 8.91 8.92 8.92 0 0 0-8.912-8.91zM699.123 282.507h-76.761a2.5 2.5 0 0 1-2.5-2.5v-70.972a2.5 2.5 0 0 1 2.5-2.5h76.76a2.5 2.5 0 0 1 2.5 2.5v70.972a2.5 2.5 0 0 1-2.5 2.5zm-74.261-5h71.76v-65.972h-71.76z" />
    <path
      d="M669.6 281.63h-17.715a2.5 2.5 0 0 1-2.5-2.5v-11.81a8.414 8.414 0 0 1 8.404-8.405h5.906a8.414 8.414 0 0 1 8.404 8.404v11.81a2.5 2.5 0 0 1-2.5 2.5zm-15.215-5H667.1v-9.31a3.408 3.408 0 0 0-3.404-3.405h-5.905a3.408 3.408 0 0 0-3.405 3.404zM634.171 229.248a2.5 2.5 0 0 1-2.5-2.5v-5.904a2.5 2.5 0 0 1 5 0v5.904a2.5 2.5 0 0 1-2.5 2.5zM651.885 229.248a2.5 2.5 0 0 1-2.5-2.5v-5.904a2.5 2.5 0 1 1 5 0v5.904a2.5 2.5 0 0 1-2.5 2.5zM669.6 229.248a2.5 2.5 0 0 1-2.5-2.5v-5.904a2.5 2.5 0 1 1 5 0v5.904a2.5 2.5 0 0 1-2.5 2.5zM687.313 229.248a2.5 2.5 0 0 1-2.5-2.5v-5.904a2.5 2.5 0 1 1 5 0v5.904a2.5 2.5 0 0 1-2.5 2.5zM634.171 246.962a2.5 2.5 0 0 1-2.5-2.5v-5.904a2.5 2.5 0 0 1 5 0v5.904a2.5 2.5 0 0 1-2.5 2.5zM651.885 246.962a2.5 2.5 0 0 1-2.5-2.5v-5.904a2.5 2.5 0 1 1 5 0v5.904a2.5 2.5 0 0 1-2.5 2.5zM669.6 246.962a2.5 2.5 0 0 1-2.5-2.5v-5.904a2.5 2.5 0 1 1 5 0v5.904a2.5 2.5 0 0 1-2.5 2.5zM687.313 246.962a2.5 2.5 0 0 1-2.5-2.5v-5.904a2.5 2.5 0 0 1 5 0v5.904a2.5 2.5 0 0 1-2.5 2.5zM705.028 211.535h-88.57a2.5 2.5 0 0 1 0-5h88.57a2.5 2.5 0 0 1 0 5z" />
    <path
      d="M699.123 211.535h-76.761a2.5 2.5 0 0 1-2.426-3.107l4.787-19.147a8.395 8.395 0 0 1 8.153-6.366h55.734a8.394 8.394 0 0 1 8.151 6.365l4.787 19.148a2.5 2.5 0 0 1-2.425 3.107zm-73.559-5h70.357l-4.01-16.041a3.403 3.403 0 0 0-3.303-2.579h-55.731a3.4 3.4 0 0 0-3.302 2.579zM634.171 264.676a2.5 2.5 0 0 1-2.5-2.5v-5.904a2.5 2.5 0 0 1 5 0v5.904a2.5 2.5 0 0 1-2.5 2.5zM687.313 264.676a2.5 2.5 0 0 1-2.5-2.5v-5.904a2.5 2.5 0 1 1 5 0v5.904a2.5 2.5 0 0 1-2.5 2.5zM794.545 282.744h-48.217a2.5 2.5 0 0 1-2.5-2.5v-50.897a7.866 7.866 0 0 1 7.857-7.858h37.503a7.866 7.866 0 0 1 7.857 7.858v50.896a2.5 2.5 0 0 1-2.5 2.5zm-45.718-5h43.218v-48.397a2.861 2.861 0 0 0-2.857-2.858h-37.503a2.861 2.861 0 0 0-2.857 2.858z" />
    <path
      d="M730.218 282.744h-8.036a2.5 2.5 0 0 1-2.5-2.5v-96.436a10.548 10.548 0 0 1 10.536-10.536h24.109a10.548 10.548 0 0 1 10.536 10.536v24.11a2.5 2.5 0 0 1-2.5 2.5h-8.036a2.5 2.5 0 0 1 0-5h5.536v-21.61a5.542 5.542 0 0 0-5.536-5.536h-24.109a5.542 5.542 0 0 0-5.536 5.536v93.936h5.536a2.5 2.5 0 0 1 0 5z" />
    <path
      d="M722.198 282.744h-8.036a2.5 2.5 0 1 1 0-5h8.036a2.5 2.5 0 1 1 0 5zM762.38 194.345h-16.074a2.5 2.5 0 0 1 0-5h16.073a2.5 2.5 0 0 1 0 5zM794.524 242.562H782.47a2.5 2.5 0 0 1 0-5h12.054a2.5 2.5 0 0 1 0 5zM778.436 282.744h-16.073a2.5 2.5 0 0 1-2.5-2.5V264.17a10.537 10.537 0 0 1 21.073 0v16.073a2.5 2.5 0 0 1-2.5 2.5zm-13.573-5h11.073V264.17a5.537 5.537 0 0 0-11.073 0zM213.792 82.672a16.806 16.806 0 0 1-14.301-7.991 16.793 16.793 0 0 1-28.603 0 16.793 16.793 0 0 1-28.603 0 16.793 16.793 0 0 1-28.603 0 16.798 16.798 0 0 1-31.102-8.81 2.508 2.508 0 0 1 .1-.705l8.682-29.568A7.23 7.23 0 0 1 98.441 30h116.292a7.231 7.231 0 0 1 7.078 5.598l8.681 29.568a2.508 2.508 0 0 1 .101.704 16.82 16.82 0 0 1-16.8 16.802zM199.491 63.37a2.5 2.5 0 0 1 2.5 2.5 11.801 11.801 0 0 0 23.597.343l-8.595-29.277a2.936 2.936 0 0 1-.041-.159 2.26 2.26 0 0 0-2.22-1.777H98.442a2.26 2.26 0 0 0-2.22 1.777 2.845 2.845 0 0 1-.04.159l-8.596 29.277a11.801 11.801 0 0 0 23.598-.343 2.5 2.5 0 0 1 5 0 11.802 11.802 0 1 0 23.603 0 2.5 2.5 0 0 1 5 0 11.801 11.801 0 1 0 23.602 0 2.5 2.5 0 0 1 5 0 11.802 11.802 0 1 0 23.603 0 2.5 2.5 0 0 1 2.5-2.5zM94.614 178.014a2.5 2.5 0 0 1-2.5-2.5V94.473a2.5 2.5 0 0 1 5 0v81.04a2.5 2.5 0 0 1-2.5 2.5zM218.56 178.014a2.5 2.5 0 0 1-2.5-2.5V94.473a2.5 2.5 0 0 1 5 0v81.04a2.5 2.5 0 0 1-2.5 2.5z" />
    <path d="M218.56 154.179H94.613a2.5 2.5 0 0 1 0-5h123.945a2.5 2.5 0 0 1 0 5z" />
    <path
      d="M127.984 154.179a16.801 16.801 0 1 1 16.801-16.802 16.82 16.82 0 0 1-16.801 16.802Zm0-28.603a11.801 11.801 0 1 0 11.801 11.801 11.815 11.815 0 0 0-11.801-11.8Z" />
    <path
      d="M127.982 125.576a2.5 2.5 0 0 1-2.078-3.886l9.534-14.302a2.5 2.5 0 0 1 4.16 2.773l-9.534 14.302a2.497 2.497 0 0 1-2.082 1.113zM156.587 154.179a16.801 16.801 0 1 1 16.8-16.802 16.82 16.82 0 0 1-16.8 16.802zm0-28.603a11.801 11.801 0 1 0 11.8 11.801 11.814 11.814 0 0 0-11.8-11.8z" />
    <path
      d="M156.584 125.576a2.5 2.5 0 0 1-2.077-3.886l9.534-14.302a2.5 2.5 0 1 1 4.16 2.773l-9.534 14.302a2.497 2.497 0 0 1-2.083 1.113zM185.19 154.179a16.801 16.801 0 1 1 16.8-16.802 16.82 16.82 0 0 1-16.8 16.802Zm0-28.603a11.801 11.801 0 1 0 11.8 11.801 11.814 11.814 0 0 0-11.8-11.8Z" />
    <path
      d="M185.187 125.576a2.5 2.5 0 0 1-2.078-3.886l9.534-14.302a2.5 2.5 0 0 1 4.16 2.773l-9.534 14.302a2.497 2.497 0 0 1-2.082 1.113zM404.013 281.278a10.805 10.805 0 0 1-2.586-.314 10.69 10.69 0 0 1-6.64-4.878L378.045 249.3l-16.753 26.812c-.034.057-.09.146-.147.234a10.765 10.765 0 1 1-18.087-11.677c.018-.029.038-.057.058-.086l24.164-33.691v-20.88a10.777 10.777 0 0 1 10.764-10.765 2.138 2.138 0 1 1 0 4.275 6.497 6.497 0 0 0-6.49 6.49v21.567a2.14 2.14 0 0 1-.4 1.246l-24.532 34.205a6.49 6.49 0 0 0 10.929 7l.095-.15 18.586-29.746a2.138 2.138 0 0 1 3.625 0l18.571 29.712a6.49 6.49 0 1 0 11.117-6.699l-.076-.121-24.535-34.201a2.138 2.138 0 0 1-.4-1.246v-3.163a2.138 2.138 0 0 1 3.105-1.906 27.223 27.223 0 0 0 11.993 2.932c11.108 0 24.741-2.483 26.49-14.312a7.405 7.405 0 0 1 .14-.769c.405-4.359.73-9.023-.274-10.119-.594-.647-2.72-.69-4.67-.68h-.012a2.138 2.138 0 0 1-.012-4.275c3.356-.024 6.065.123 7.846 2.067 2.057 2.246 2.085 5.863 1.357 13.647a2.156 2.156 0 0 1-.107.496c-.012.071-.024.158-.038.259-1.738 11.75-12.368 17.96-30.74 17.96a31.574 31.574 0 0 1-10.03-1.746l23.395 32.613q.029.039.056.08c.057.088.114.178.168.268a10.771 10.771 0 0 1-9.188 16.347zm26.116-65.262-.002.003zm.002-.003-.001.002zM378.044 186.268a19.392 19.392 0 1 1 19.392-19.391 19.413 19.413 0 0 1-19.392 19.39zm0-34.508a15.116 15.116 0 1 0 15.117 15.117 15.134 15.134 0 0 0-15.117-15.117z" />
    <path
      d="M352.165 184.571a2.137 2.137 0 0 1-1.103-3.97l51.763-31.108a2.137 2.137 0 1 1 2.202 3.664l-51.762 31.109a2.126 2.126 0 0 1-1.1.305zM421.306 203.562l-99.339-.04a2.138 2.138 0 0 1 .001-4.275l99.339.04a2.138 2.138 0 0 1-.001 4.275z" />
    <path
      d="M334.909 229.403H313.34a6.458 6.458 0 0 1-6.451-6.45v-17.255a6.459 6.459 0 0 1 6.451-6.45h8.627a2.138 2.138 0 0 1 1.912 1.18l12.94 25.881a2.138 2.138 0 0 1-1.912 3.094zm-21.568-25.88a2.178 2.178 0 0 0-2.176 2.175v17.255a2.178 2.178 0 0 0 2.176 2.175h18.11l-10.804-21.606zM1082.11 177.922h-5v-57.415a4.682 4.682 0 0 0-4.677-4.677h-28.707a4.682 4.682 0 0 0-4.677 4.677v57.415h-5v-57.415a9.688 9.688 0 0 1 9.677-9.677h28.707a9.688 9.688 0 0 1 9.677 9.677z" />
    <path
      d="M1036.55 132.361h43.06v5h-43.06zM1036.55 153.892h43.06v5h-43.06zM1045.806 114.717l-4.16-2.773 16.433-24.651 16.434 24.651-4.16 2.773-12.274-18.41zM1205.782 176.35h-5v-56.405a1.647 1.647 0 0 0-.642-1.308l-29.129-22.654a1.655 1.655 0 0 0-2.327.282 1.657 1.657 0 0 0-.35 1.02v79.066h-5V97.293a6.655 6.655 0 0 1 10.752-5.254l29.122 22.649a6.616 6.616 0 0 1 2.574 5.255zM1151.69 176.35h-5V56.007a1.67 1.67 0 0 0-.2-.778 1.662 1.662 0 0 0-2.25-.672l-45.772 24.633a1.649 1.649 0 0 0-.87 1.458v95.704h-5V80.65a6.64 6.64 0 0 1 3.502-5.865l45.769-24.63a6.662 6.662 0 0 1 9.821 5.844z" />
    <path
      d="M1124.224 90.632h24.966v5h-24.966zM1115.902 107.276h33.288v5h-33.288zM1133.76 177.565h-21.643V158.42a10.822 10.822 0 0 1 21.643 0zm-16.643-5h11.643V158.42a5.822 5.822 0 0 0-11.643 0zM1105.08 49.591h5v19.917h-5zM1165.833 119.759h12.482v5h-12.482zM1165.833 136.402h20.805v5h-20.805zM1192.46 93.132h5v18.309h-5z" />
    <path
      d="M977.065 268.256c0-.448.111-43.91 26.148-70.06 13.106-13.163 30.648-19.838 52.14-19.838h159.576v-5h-159.577c-22.881 0-41.624 7.178-55.705 21.333-27.505 27.648-27.591 71.715-27.582 73.578" />
    <path
      d="M1240.25 175.859a13.91 13.91 0 1 1-13.91-13.91 13.926 13.926 0 0 1 13.91 13.91zm-5 0a8.91 8.91 0 1 0-8.91 8.91 8.92 8.92 0 0 0 8.91-8.91zM293.185 269.028c.002-.448-.111-43.91-26.147-70.06-13.107-13.163-30.649-19.838-52.14-19.838H55.32v-5h159.577c22.882 0 41.624 7.178 55.705 21.333 27.505 27.648 27.592 71.715 27.582 73.578" />
    <path
      d="M43.91 162.72A13.91 13.91 0 1 1 30 176.63a13.926 13.926 0 0 1 13.91-13.91zm0 22.82a8.91 8.91 0 1 0-8.91-8.91 8.92 8.92 0 0 0 8.91 8.911z" />
  </g>
</svg>
