<?xml version="1.0" encoding="UTF-8"?>
<svg id="Ebene_1" data-name="Ebene 1" xmlns="http://www.w3.org/2000/svg" width="1358" height="553" viewBox="0 0 1358 553">
  <polygon points="1391.8823 567.3976 -33.8823 566.7828 -32.5156 -12.0585 1391.8501 -13.812 1391.8823 567.3976" fill="#34d399"/>
  <g>
    <g>
      <path d="M795.1061,512.7616h-76.7607c-1.3809,0-2.5-1.1191-2.5-2.5v-70.9727c0-1.3809,1.1191-2.5,2.5-2.5h76.7607c1.3809,0,2.5,1.1191,2.5,2.5v70.9727c0,1.3809-1.1191,2.5-2.5,2.5Zm-74.2607-5h71.7607v-65.9727h-71.7607v65.9727Z" fill="#aeedd6"/>
      <path d="M765.5826,511.8836h-17.7139c-1.3809,0-2.5-1.1191-2.5-2.5v-11.8096c0-4.6338,3.7705-8.4043,8.4043-8.4043h5.9053c4.6338,0,8.4043,3.7705,8.4043,8.4043v11.8096c0,1.3809-1.1191,2.5-2.5,2.5Zm-15.2139-5h12.7139v-9.3096c0-1.877-1.5273-3.4043-3.4043-3.4043h-5.9053c-1.877,0-3.4043,1.5273-3.4043,3.4043v9.3096Z" fill="#aeedd6"/>
      <path d="M730.1549,459.5028c-1.3809,0-2.5-1.1191-2.5-2.5v-5.9043c0-1.3809,1.1191-2.5,2.5-2.5s2.5,1.1191,2.5,2.5v5.9043c0,1.3809-1.1191,2.5-2.5,2.5Z" fill="#aeedd6"/>
      <path d="M747.8688,459.5028c-1.3809,0-2.5-1.1191-2.5-2.5v-5.9043c0-1.3809,1.1191-2.5,2.5-2.5s2.5,1.1191,2.5,2.5v5.9043c0,1.3809-1.1191,2.5-2.5,2.5Z" fill="#aeedd6"/>
      <path d="M765.5826,459.5028c-1.3809,0-2.5-1.1191-2.5-2.5v-5.9043c0-1.3809,1.1191-2.5,2.5-2.5s2.5,1.1191,2.5,2.5v5.9043c0,1.3809-1.1191,2.5-2.5,2.5Z" fill="#aeedd6"/>
      <path d="M783.2965,459.5028c-1.3809,0-2.5-1.1191-2.5-2.5v-5.9043c0-1.3809,1.1191-2.5,2.5-2.5s2.5,1.1191,2.5,2.5v5.9043c0,1.3809-1.1191,2.5-2.5,2.5Z" fill="#aeedd6"/>
      <path d="M730.1549,477.2166c-1.3809,0-2.5-1.1191-2.5-2.5v-5.9043c0-1.3809,1.1191-2.5,2.5-2.5s2.5,1.1191,2.5,2.5v5.9043c0,1.3809-1.1191,2.5-2.5,2.5Z" fill="#aeedd6"/>
      <path d="M747.8688,477.2166c-1.3809,0-2.5-1.1191-2.5-2.5v-5.9043c0-1.3809,1.1191-2.5,2.5-2.5s2.5,1.1191,2.5,2.5v5.9043c0,1.3809-1.1191,2.5-2.5,2.5Z" fill="#aeedd6"/>
      <path d="M765.5826,477.2166c-1.3809,0-2.5-1.1191-2.5-2.5v-5.9043c0-1.3809,1.1191-2.5,2.5-2.5s2.5,1.1191,2.5,2.5v5.9043c0,1.3809-1.1191,2.5-2.5,2.5Z" fill="#aeedd6"/>
      <path d="M783.2965,477.2166c-1.3809,0-2.5-1.1191-2.5-2.5v-5.9043c0-1.3809,1.1191-2.5,2.5-2.5s2.5,1.1191,2.5,2.5v5.9043c0,1.3809-1.1191,2.5-2.5,2.5Z" fill="#aeedd6"/>
      <path d="M801.0114,441.7889h-88.5703c-1.3809,0-2.5-1.1191-2.5-2.5s1.1191-2.5,2.5-2.5h88.5703c1.3809,0,2.5,1.1191,2.5,2.5s-1.1191,2.5-2.5,2.5Z" fill="#aeedd6"/>
      <path d="M795.1061,441.7889h-76.7607c-.7695,0-1.4971-.3545-1.9707-.9619-.4736-.6064-.6416-1.3975-.4551-2.1445l4.7871-19.1475c.9375-3.7461,4.29-6.3643,8.1523-6.3652h55.7344c3.8613,.001,7.2139,2.6182,8.1514,6.3643l4.7871,19.1484c.1865,.7471,.0186,1.5381-.4551,2.1445-.4736,.6074-1.2012,.9619-1.9707,.9619Zm-73.5586-5h70.3564l-4.0098-16.041c-.3799-1.5166-1.7383-2.5771-3.3027-2.5781h-55.7314c-1.5645,.001-2.9229,1.0605-3.3018,2.5781l-4.0107,16.041Z" fill="#aeedd6"/>
      <path d="M730.1549,494.9305c-1.3809,0-2.5-1.1191-2.5-2.5v-5.9043c0-1.3809,1.1191-2.5,2.5-2.5s2.5,1.1191,2.5,2.5v5.9043c0,1.3809-1.1191,2.5-2.5,2.5Z" fill="#aeedd6"/>
      <path d="M783.2965,494.9305c-1.3809,0-2.5-1.1191-2.5-2.5v-5.9043c0-1.3809,1.1191-2.5,2.5-2.5s2.5,1.1191,2.5,2.5v5.9043c0,1.3809-1.1191,2.5-2.5,2.5Z" fill="#aeedd6"/>
    </g>
    <g>
      <path d="M890.5289,512.9979h-48.2178c-1.3809,0-2.5-1.1191-2.5-2.5v-50.8965c0-4.333,3.5244-7.8574,7.8574-7.8574h37.5029c4.333,0,7.8574,3.5244,7.8574,7.8574v50.8965c0,1.3809-1.1191,2.5-2.5,2.5Zm-45.7178-5h43.2178v-48.3965c0-1.5752-1.2822-2.8574-2.8574-2.8574h-37.5029c-1.5752,0-2.8574,1.2822-2.8574,2.8574v48.3965Z" fill="#aeedd6"/>
      <path d="M826.2018,512.9979h-8.0361c-1.3809,0-2.5-1.1191-2.5-2.5v-96.4355c0-5.8096,4.7266-10.5361,10.5361-10.5361h24.1084c5.8096,0,10.5361,4.7266,10.5361,10.5361v24.1094c0,1.3809-1.1191,2.5-2.5,2.5h-8.0361c-1.3809,0-2.5-1.1191-2.5-2.5s1.1191-2.5,2.5-2.5h5.5361v-21.6094c0-3.0527-2.4834-5.5361-5.5361-5.5361h-24.1084c-3.0527,0-5.5361,2.4834-5.5361,5.5361v93.9355h5.5361c1.3809,0,2.5,1.1191,2.5,2.5s-1.1191,2.5-2.5,2.5Z" fill="#aeedd6"/>
      <path d="M818.1813,512.9979h-8.0361c-1.3809,0-2.5-1.1191-2.5-2.5s1.1191-2.5,2.5-2.5h8.0361c1.3809,0,2.5,1.1191,2.5,2.5s-1.1191,2.5-2.5,2.5Z" fill="#aeedd6"/>
      <path d="M858.3629,424.5995h-16.0732c-1.3809,0-2.5-1.1191-2.5-2.5s1.1191-2.5,2.5-2.5h16.0732c1.3809,0,2.5,1.1191,2.5,2.5s-1.1191,2.5-2.5,2.5Z" fill="#aeedd6"/>
      <path d="M890.5074,472.8163h-12.0537c-1.3809,0-2.5-1.1191-2.5-2.5s1.1191-2.5,2.5-2.5h12.0537c1.3809,0,2.5,1.1191,2.5,2.5s-1.1191,2.5-2.5,2.5Z" fill="#aeedd6"/>
      <path d="M874.4196,512.9979h-16.0732c-1.3809,0-2.5-1.1191-2.5-2.5v-16.0723c0-5.8096,4.7266-10.5361,10.5361-10.5361s10.5371,4.7266,10.5371,10.5361v16.0723c0,1.3809-1.1191,2.5-2.5,2.5Zm-13.5732-5h11.0732v-13.5723c0-3.0527-2.4844-5.5361-5.5371-5.5361s-5.5361,2.4834-5.5361,5.5361v13.5723Z" fill="#aeedd6"/>
    </g>
  </g>
  <g>
    <path d="M165.4483,360.3914c-4.6753,0-8.7821-2.4779-11.077-6.1896-2.2949,3.7116-6.4021,6.1896-11.0774,6.1896s-8.7821-2.4787-11.077-6.1896c-2.2949,3.7109-6.4021,6.1896-11.077,6.1896s-8.7821-2.4787-11.077-6.1896c-2.2949,3.7109-6.4021,6.1896-11.077,6.1896s-8.7825-2.4779-11.0774-6.1896c-2.2949,3.7116-6.4017,6.1896-11.077,6.1896-7.1755,0-13.0134-5.8378-13.0134-13.0138,0-.1846,.0265-.3684,.0783-.5454l6.724-22.9021c.604-2.5566,2.8486-4.3356,5.4827-4.3356h90.0736c2.6341,0,4.8787,1.779,5.4827,4.3356l6.724,22.9021c.0518,.177,.0783,.3608,.0783,.5454,0,7.1759-5.8378,13.0138-13.0134,13.0138Zm-11.077-14.9501c1.0695,0,1.9364,.8668,1.9364,1.9364,0,5.0406,4.1004,9.141,9.1406,9.141,4.9514,0,8.9958-3.9575,9.1369-8.8755l-6.6578-22.6767c-.0117-.0401-.0223-.0817-.0318-.1225-.1812-.8109-.888-1.3766-1.7189-1.3766H76.1031c-.8309,0-1.5377,.5658-1.7189,1.3766-.0095,.0408-.02,.0824-.0318,.1225l-6.6578,22.6767c.1411,4.9181,4.1855,8.8755,9.1369,8.8755,5.0402,0,9.1406-4.1004,9.1406-9.141,0-1.0695,.8668-1.9364,1.9364-1.9364s1.9364,.8668,1.9364,1.9364c0,5.0406,4.1008,9.141,9.141,9.141s9.1406-4.1004,9.1406-9.141c0-1.0695,.8668-1.9364,1.9364-1.9364s1.9364,.8668,1.9364,1.9364c0,5.0406,4.1004,9.141,9.1406,9.141s9.1406-4.1004,9.1406-9.141c0-1.0695,.8668-1.9364,1.9364-1.9364s1.9364,.8668,1.9364,1.9364c0,5.0406,4.1004,9.141,9.1406,9.141s9.141-4.1004,9.141-9.141c0-1.0695,.8668-1.9364,1.9364-1.9364Z" fill="#aeedd6"/>
    <path d="M73.1392,434.2381c-1.0695,0-1.9364-.8668-1.9364-1.9364v-62.7701c0-1.0695,.8668-1.9364,1.9364-1.9364s1.9364,.8668,1.9364,1.9364v62.7701c0,1.0695-.8668,1.9364-1.9364,1.9364Z" fill="#aeedd6"/>
    <path d="M169.1406,434.2381c-1.0695,0-1.9364-.8668-1.9364-1.9364v-62.7701c0-1.0695,.8668-1.9364,1.9364-1.9364s1.9364,.8668,1.9364,1.9364v62.7701c0,1.0695-.8668,1.9364-1.9364,1.9364Z" fill="#aeedd6"/>
    <path d="M169.1406,415.7768H73.1392c-1.0695,0-1.9364-.8668-1.9364-1.9364s.8668-1.9364,1.9364-1.9364h96.0015c1.0695,0,1.9364,.8668,1.9364,1.9364s-.8668,1.9364-1.9364,1.9364Z" fill="#aeedd6"/>
    <path d="M98.9859,415.7768c-7.1759,0-13.0138-5.8378-13.0138-13.0138s5.8378-13.013,13.0138-13.013,13.0134,5.8378,13.0134,13.013-5.8378,13.0138-13.0134,13.0138Zm0-22.154c-5.0402,0-9.141,4.1004-9.141,9.1403s4.1008,9.141,9.141,9.141,9.1406-4.1004,9.1406-9.141-4.1004-9.1403-9.1406-9.1403Z" fill="#aeedd6"/>
    <path d="M98.984,393.6228c-.3691,0-.742-.1051-1.0722-.3252-.8899-.593-1.1304-1.7957-.537-2.6852l7.3847-11.0774c.5926-.8888,1.7949-1.1308,2.6852-.537,.8899,.593,1.1304,1.7957,.537,2.6852l-7.3847,11.0774c-.3729,.5597-.9871,.8623-1.613,.8623Z" fill="#aeedd6"/>
    <path d="M121.1399,415.7768c-7.1755,0-13.0134-5.8378-13.0134-13.0138s5.8378-13.013,13.0134-13.013,13.0134,5.8378,13.0134,13.013-5.8378,13.0138-13.0134,13.0138Zm0-22.154c-5.0402,0-9.1406,4.1004-9.1406,9.1403s4.1004,9.141,9.1406,9.141,9.1406-4.1004,9.1406-9.141-4.1004-9.1403-9.1406-9.1403Z" fill="#aeedd6"/>
    <path d="M121.138,393.6228c-.3691,0-.742-.1051-1.0722-.3252-.8899-.593-1.1304-1.7957-.537-2.6852l7.3847-11.0774c.5926-.8888,1.7957-1.1308,2.6852-.537,.8899,.593,1.1304,1.7957,.537,2.6852l-7.3847,11.0774c-.3729,.5597-.9871,.8623-1.613,.8623Z" fill="#aeedd6"/>
    <path d="M143.2939,415.7768c-7.1755,0-13.0134-5.8378-13.0134-13.0138s5.8378-13.013,13.0134-13.013,13.0138,5.8378,13.0138,13.013-5.8378,13.0138-13.0138,13.0138Zm0-22.154c-5.0402,0-9.1406,4.1004-9.1406,9.1403s4.1004,9.141,9.1406,9.141,9.141-4.1004,9.141-9.141-4.1008-9.1403-9.141-9.1403Z" fill="#aeedd6"/>
    <path d="M143.292,393.6228c-.3691,0-.742-.1051-1.0722-.3252-.8899-.593-1.1304-1.7957-.537-2.6852l7.3847-11.0774c.5926-.8888,1.7953-1.1308,2.6852-.537,.8899,.593,1.1304,1.7957,.537,2.6852l-7.3847,11.0774c-.3729,.5597-.9871,.8623-1.613,.8623Z" fill="#aeedd6"/>
  </g>
  <g>
    <path d="M271.9915,433.4111c-.7361,0-1.4776-.0885-2.2112-.2692-2.3875-.5862-4.4042-2.067-5.6775-4.1703l-14.3159-22.9036-14.3252,22.9257c-.0289,.0486-.0764,.1242-.1253,.1999-1.3358,2.0684-3.3942,3.4906-5.7978,4.0083-2.4025,.5176-4.8647,.0664-6.9302-1.2673-4.2631-2.7538-5.4912-8.462-2.7377-12.7252,.0161-.025,.0328-.0493,.05-.0735l20.6614-28.8082v-17.8537c0-5.0756,4.1293-9.2046,9.2046-9.2046,1.0096,0,1.8278,.8182,1.8278,1.8278s-.8182,1.8278-1.8278,1.8278c-3.0597,0-5.549,2.4896-5.549,5.549v18.4413c0,.382-.1199,.7547-.3424,1.0653l-20.9762,29.2473c-1.6307,2.566-.8857,5.9838,1.6728,7.6367,1.2448,.8032,2.7281,1.076,4.1778,.7632,1.449-.3113,2.6899-1.1688,3.4938-2.414l.081-.1292,15.892-25.4339c.3338-.5341,.9196-.8589,1.55-.8589,.6301,0,1.2159,.3249,1.55,.8589l15.8795,25.4054c.7811,1.2902,1.9966,2.1826,3.436,2.536,1.4379,.3534,2.9298,.1249,4.1978-.6426,2.6171-1.5857,3.4567-5.0043,1.8717-7.6217l-.0653-.1035-20.9784-29.2437c-.2228-.3106-.3427-.6833-.3427-1.0653v-2.7045c0-.6354,.3299-1.2252,.8714-1.5579,.5416-.3313,1.2166-.3598,1.7835-.0721,3.1636,1.6057,6.7099,2.4725,10.2555,2.5068,9.498,0,21.1547-2.1226,22.6505-12.2368,.0353-.2385,.0671-.4541,.1199-.6576,.3456-3.7277,.6237-7.7152-.2349-8.6527-.5073-.5533-2.3247-.5905-3.9933-.5812h-.0104c-1.0046,0-1.8217-.8118-1.8274-1.8178-.0054-1.0096,.8082-1.8321,1.8178-1.8378,2.8695-.0207,5.1852,.105,6.7089,1.7678,1.7589,1.9206,1.7824,5.0128,1.1599,11.6685-.0136,.1457-.0446,.2877-.0914,.4248-.01,.0607-.0203,.1349-.0328,.2206-1.4858,10.0471-10.5747,15.3576-26.2843,15.3576-2.9177-.0278-5.8268-.5391-8.5763-1.4936l20.0049,27.8864c.0161,.0221,.0318,.045,.0471,.0685,.0489,.0757,.0975,.1521,.1442,.2292,2.6292,4.3417,1.2366,10.0128-3.1044,12.6424-1.4565,.8825-3.0912,1.3351-4.7522,1.3351Zm22.3303-55.8036l-.0018,.0021,.0018-.0021Zm.0014-.0029l-.0007,.0014,.0007-.0014Z" fill="#aeedd6"/>
    <g>
      <path d="M249.7865,352.1714c-9.1432,0-16.5814-7.4382-16.5814-16.5806s7.4382-16.5814,16.5814-16.5814,16.581,7.4382,16.581,16.5814-7.4382,16.5806-16.581,16.5806Zm0-29.5065c-7.1273,0-12.9258,5.7982-12.9258,12.9258s5.7985,12.9251,12.9258,12.9251,12.9255-5.7982,12.9255-12.9251-5.7982-12.9258-12.9255-12.9258Z" fill="#aeedd6"/>
      <path d="M227.6583,350.7206c-.6204,0-1.2255-.3156-1.5682-.886-.5201-.8653-.2403-1.9884,.6251-2.5082l44.26-26.5999c.8643-.5191,1.9877-.2399,2.5078,.6247,.5201,.8653,.2403,1.9884-.6251,2.5082l-44.26,26.5999c-.2945,.1771-.619,.2613-.9396,.2613Z" fill="#aeedd6"/>
      <path d="M286.7779,366.9593h-.0007l-84.9398-.0343c-1.0096-.0007-1.8274-.8189-1.8271-1.8285,.0004-1.0088,.8186-1.8271,1.8278-1.8271h.0007l84.9398,.0343c1.0096,.0007,1.8274,.8189,1.8271,1.8285-.0004,1.0088-.8186,1.8271-1.8278,1.8271Z" fill="#aeedd6"/>
      <path d="M212.9029,389.0547h-18.4416c-3.0415,0-5.5162-2.4739-5.5162-5.5155v-14.7536c0-3.0415,2.4746-5.5162,5.5162-5.5162h7.3768c.6922,0,1.3251,.3913,1.6346,1.0103l11.0648,22.1297c.2834,.5669,.2531,1.2395-.08,1.7785s-.9214,.8668-1.5547,.8668Zm-18.4416-22.1297c-1.026,0-1.8606,.8346-1.8606,1.8606v14.7536c0,1.0253,.8346,1.8599,1.8606,1.8599h15.4843l-9.2371-18.4741h-6.2473Z" fill="#aeedd6"/>
    </g>
  </g>
  <g>
    <g>
      <path d="M1091.4786,401.852h-5v-63.4188c0-2.5791-2.0977-4.6768-4.6768-4.6768h-28.707c-2.5791,0-4.6768,2.0977-4.6768,4.6768v90.4358h-5v-90.4358c0-5.3359,4.3408-9.6768,9.6768-9.6768h28.707c5.3359,0,9.6768,4.3408,9.6768,9.6768v63.4188Z" fill="#aeedd6"/>
      <rect x="1045.918" y="350.2877" width="43.0605" height="5" fill="#aeedd6"/>
      <rect x="1045.918" y="371.8179" width="43.0605" height="5" fill="#aeedd6"/>
      <polygon points="1079.7218 332.6431 1067.4483 314.233 1055.1749 332.6431 1051.0147 329.8697 1067.4483 305.2193 1083.8819 329.8697 1079.7218 332.6431" fill="#aeedd6"/>
    </g>
    <path d="M1215.1505,412.2883h-5v-74.4166c0-.5146-.2344-.9932-.6416-1.3086l-29.1289-22.6543c-.3525-.2764-.792-.3984-1.2246-.3418-.4395,.0537-.8301,.2754-1.1025,.624-.2275,.291-.3516,.6533-.3506,1.0205v84.0686h-5v-84.0608c-.0049-1.4756,.4961-2.9355,1.4102-4.1055,1.0928-1.4004,2.667-2.292,4.4326-2.5098,1.7627-.2178,3.5068,.2656,4.9092,1.3613l29.1221,22.6484c1.6338,1.2676,2.5723,3.1836,2.5742,5.2559v74.4186Z" fill="#aeedd6"/>
    <g>
      <path d="M1161.0587,394.2769h-5v-120.3447c-.001-.2656-.0703-.5371-.2002-.7783-.21-.3887-.5596-.6738-.9844-.8008-.4287-.1299-.875-.0801-1.2656,.1289l-45.7715,24.6328c-.5391,.29-.8721,.8477-.8711,1.458v95.7041h-5v-95.7012c-.0029-2.4531,1.3389-4.7012,3.5029-5.8643l45.7686-24.6309c3.2334-1.7441,7.2812-.5312,9.0225,2.7012,.5195,.9639,.7959,2.0508,.7988,3.1436v120.3516Z" fill="#aeedd6"/>
      <rect x="1133.5929" y="308.5582" width="24.9658" height="5" fill="#aeedd6"/>
      <rect x="1125.2706" y="325.2017" width="33.2881" height="5" fill="#aeedd6"/>
      <path d="M1143.129,395.4908h-21.6436v-19.1436c0-5.9668,4.8545-10.8213,10.8213-10.8213s10.8223,4.8545,10.8223,10.8213v19.1436Zm-16.6436-5h11.6436v-14.1436c0-3.21-2.6123-5.8213-5.8223-5.8213s-5.8213,2.6113-5.8213,5.8213v14.1436Z" fill="#aeedd6"/>
      <rect x="1114.4493" y="267.5172" width="5" height="19.917" fill="#aeedd6"/>
    </g>
    <rect x="1175.2022" y="337.6851" width="12.4824" height="5" fill="#aeedd6"/>
    <rect x="1175.2022" y="354.3287" width="20.8047" height="5" fill="#aeedd6"/>
    <rect x="1201.8282" y="311.0582" width="5" height="18.3086" fill="#aeedd6"/>
  </g>
  <path d="M342.1323,480.3475h.0001c32.0493,32.0494,75.5175,30.0419,120.842,30.0419h420.7473c51.8665,0,101.6087-20.6039,138.2839-57.2791l24.9969-24.9969c22.1208-22.1208,52.123-34.5481,83.4065-34.5481h.0001c49.968,0,97.8895,19.8497,133.2222,55.1825l104.4715,104.4715" fill="none" stroke="#aeedd6" stroke-miterlimit="10" stroke-width="5"/>
  <path d="M1168.1586,397.4921v.0002c-65.3666,90.0558-39.0801,216.8224,56.7052,273.4616l.0003,.0002c15.8507,9.3728,4.9375,33.6306-12.5908,27.9866l-2.0082-.6466c-90.0069-28.9814-187.8402-21.0207-271.9777,22.1309h-.0001" fill="none" stroke="#aeedd6" stroke-miterlimit="10" stroke-width="5"/>
  <path d="M196.4306,433.2375v.0002c65.3666,90.0558,39.0801,216.8224-56.7052,273.4616l-.0003,.0002c-15.8507,9.3728-4.9375,33.6306,12.5908,27.9866l2.0082-.6466c90.0069-28.9814,187.8402-21.0207,271.9777,22.1309h.0001" fill="none" stroke="#aeedd6" stroke-miterlimit="10" stroke-width="5"/>
  <line x1="-108.4426" y1="433.8199" x2="261.1444" y2="433.8199" fill="none" stroke="#aeedd6" stroke-miterlimit="10" stroke-width="5"/>
  <path d="M342.1324,480.3476s-37.8005-46.5277-80.9881-46.5277" fill="none" stroke="#aeedd6" stroke-miterlimit="10" stroke-width="5"/>
  <g>
    <path d="M698.2117,469.9837c2.1345,3.6971,.8678,8.4246-2.8293,10.5592-1.1796,.681-2.5182,1.0383-3.8802,1.0356h-34.7844c-4.2691-.0044-7.7263-3.4687-7.7219-7.7378,.0014-1.3542,.3585-2.6842,1.0356-3.857l16.5883-36.6705c1.0481-4.1384,5.2526-6.6436,9.391-5.5955,2.7106,.6865,4.8392,2.7834,5.5662,5.4834l16.6347,36.7825Z" fill="none" stroke="#aeedd6" stroke-miterlimit="10" stroke-width="5"/>
    <path d="M674.11,495.1058c7.4709,0,13.5273-6.0564,13.5273-13.5273" fill="none" stroke="#aeedd6" stroke-miterlimit="10" stroke-width="5"/>
    <line x1="674.11" y1="452.58" x2="674.11" y2="508.6214" fill="none" stroke="#aeedd6" stroke-miterlimit="10" stroke-width="5"/>
    <path d="M674.11,469.9837c-5.3364,0-9.6623-4.326-9.6623-9.6623" fill="none" stroke="#aeedd6" stroke-miterlimit="10" stroke-width="5"/>
  </g>
  <path d="M478.2216,465.4498c-13.5122,0-24.4155,11.4631-23.4888,25.1684,.7735,11.4398,9.9241,20.8024,21.3446,21.8232,13.0431,1.1658,24.0419-8.4263,25.4264-20.8317h36.281c1.3378,0,2.6586-1.0771,2.7552-2.4114,.113-1.5604-1.0765-2.8206-2.6085-2.8206h-21.464l-18.7231-36.4232,6.4903,.8001c1.3378,0,2.6586-1.0771,2.7552-2.4114,.113-1.5604-1.0765-2.8206-2.6085-2.8206l-15.5447-2.0013c-1.2517,0-2.4253,.812-2.6964,2.034-.3887,1.7521,.8041,2.9194,2.5452,3.2505l3.4824,.4924,3.9473,8.1472-7.1684,10.7255c-3.2444-1.6747-6.8542-2.7211-10.7255-2.7211h.0003Zm32.4379,20.8753h-9.1033c-.7337-6.122-3.715-11.5103-8.2148-15.2779l5.4936-8.2659,11.8245,23.5438Zm-14.4405,.0526h-13.1325l7.3247-10.9345c3.0878,2.7723,5.232,6.5926,5.8078,10.9345Zm-17.9975,20.9265c-10.0974,0-18.3644-8.1622-18.3633-18.2604,0-10.0971,8.2148-18.3119,18.3119-18.3119,2.825,0,5.441,.6797,7.8479,1.8312l-9.9933,15.0163c-.5232,.7848-.5757,1.8312-.1051,2.6685s1.3606,1.3606,2.3018,1.3606h18.0503c-1.308,8.8417-8.8417,15.6959-18.0503,15.6959v-.0002Zm47.0876-71.0172h-.0006c-1.071,0-2.0997,.6211-2.4472,1.6342-.5576,1.6258,.3311,3.108,1.7174,3.4981l8.5777,3.1016v44.4716c0,1.4448,1.1712,2.616,2.616,2.616h18.6261c0,11.5629,9.3649,20.9278,20.9278,20.9278,11.5629,0,20.9278-9.3649,20.9278-20.9278h18.6261c1.4448,0,2.616-1.1712,2.616-2.616v-26.1598c0-1.4448-1.1712-2.616-2.616-2.616h-76.4912v-18.3119c0-1.3424-.9676-2.4219-2.2569-2.5925l-10.823-3.0254Zm50.0175,71.0173c-8.6327,0-15.6959-7.0631-15.6971-15.6421,0-.7848,.1039-1.4657,.209-2.1979v-.0526c.2616-1.9364,.8887-3.715,1.7786-5.3372,.4706-.7848,.9413-1.5696,1.517-2.2493l.1051-.1051c.5232-.6797,1.1503-1.2554,1.7786-1.8312,.1051-.0526,.1565-.1565,.2616-.209,.6283-.5232,1.2566-.995,1.9363-1.4131,.209-.1051,.3667-.2091,.5758-.3142,.5758-.3655,1.2041-.6797,1.8837-.9413,.3667-.1577,.7848-.2616,1.1515-.3667,.5232-.1565,1.0464-.313,1.5696-.4181,.9413-.2091,1.9363-.3667,2.929-.3679,.9938,0,1.9889,.1051,2.9301,.3142,.5232,.1039,1.0464,.2616,1.5696,.4181,.3667,.1051,.7848,.2102,1.1515,.3667,.6283,.2616,1.2554,.5746,1.8837,.9413,.209,.1051,.4193,.2091,.5758,.3142,.6809,.4193,1.308,.8899,1.9363,1.4131,.1051,.0526,.1565,.1565,.2616,.209,.6271,.5758,1.2554,1.1515,1.7786,1.8312l.1051,.1051c.5758,.7322,1.0989,1.4645,1.517,2.2493,.8887,1.6222,1.517,3.4009,1.7786,5.3372v.0526c.1039,.7334,.209,1.4657,.209,2.1979,0,8.6327-7.0631,15.6959-15.6959,15.6959h0Zm-36.9386-41.8557h73.666v20.9278h-16.7423v-.0526c-1.0975-4.3434-3.6097-8.0583-6.9579-10.8307-.2102-.1565-.4193-.3667-.6283-.5232-.6271-.5232-1.308-.9425-2.0402-1.3606-.4181-.2102-.7848-.4193-1.2029-.6283-.6283-.3142-1.2566-.6283-1.9363-.8899-.5758-.209-1.2554-.4193-1.8837-.5758-.5758-.1565-1.0989-.313-1.6221-.4181-1.2553-.2102-2.5109-.3667-3.8187-.3667s-2.5633,.1051-3.8187,.3667c-.5758,.1039-1.0989,.2616-1.6221,.4181-.6283,.1577-1.2554,.3142-1.8837,.5758-.6809,.2616-1.308,.5757-1.9363,.8899-.4181,.1577-.7848,.4193-1.2029,.6283-.6797,.4193-1.3605,.8374-2.0402,1.3606-.2102,.1565-.4193,.3667-.6283,.5232-3.3482,2.7738-5.8064,6.4888-6.9579,10.8307v.0526h-16.7423l-.001-20.9278Z" fill="#aeedd6"/>
</svg>