<svg xmlns="http://www.w3.org/2000/svg" width="1358" height="553" viewBox="0 0 1358 553">
  <rect y="0.2267" width="1358" height="551.9829" fill="#34d399" />
  <g>
    <g>
      <g>
        <path
          d="M566.6842,406.83l.1577-.0772a30.9463,30.9463,0,0,0-24.6646-17.185c-.0293-.0029-.0586-.0069-.0879-.01-.3978-.04-.7968-.0688-1.1967-.0937-.1221-.0078-.2443-.0186-.3664-.0249-.3044-.0152-.61-.02-.9149-.0269-.2136-.0044-.427-.0122-.64-.0122s-.4269.0078-.64.0122c-.3054.0064-.6106.0117-.915.0269-.1221.0063-.2441.0171-.3663.0249-.4.0249-.799.0537-1.1967.0937-.0293.0034-.0586.0074-.0879.01A30.946,30.946,0,0,0,511.1,406.7524l.1576.0772a30.7968,30.7968,0,0,0-3.16,13.4795v91.4238h5V420.311a26.1075,26.1075,0,0,1,14.5542-23.2841,25.7908,25.7908,0,0,1,9.87-2.5884c.0381-.002.0762-.0054.1142-.0073.2849-.0152.57-.02.8542-.0254.16-.0025.32-.0093.48-.0093s.32.0068.48.0093c.2846.0058.5692.01.8542.0254.0381.0019.0761.0053.1141.0073a25.7913,25.7913,0,0,1,9.87,2.5884,26.1073,26.1073,0,0,1,14.5542,23.2841v16.3747h5V420.3091A30.8,30.8,0,0,0,566.6842,406.83Z"
          fill="#aeedd6" />
        <rect x="510.5982" y="446.2458" width="44.2361" height="5" fill="#aeedd6" />
        <rect x="510.5982" y="421.8718" width="56.1578" height="5" fill="#aeedd6" />
        <path
          d="M624.3463,512.4027H543.0977a2.5,2.5,0,0,1-2.5-2.5V461.8871h5v45.5156h76.2486V461.8871h5v48.0156A2.5,2.5,0,0,1,624.3463,512.4027Z"
          fill="#aeedd6" />
        <path
          d="M630.7037,470.8259l-42.9771-42.9775c-.01-.0088-.0195-.0186-.0288-.0284a5.63,5.63,0,0,0-7.9541.003L536.74,470.8259l-3.5351-3.5352,43.0024-43.0029a10.6373,10.6373,0,0,1,14.9966-.0322l.0322.0322,43.0025,43.0029Z"
          fill="#aeedd6" />
      </g>
      <g>
        <path
          d="M921.64,511.7468h-5V434.5954a1.8344,1.8344,0,0,0-2.9638-1.456l-30.3848,23.6318a1.8271,1.8271,0,0,0-.7139,1.4541v53.2481h-5v-53.25a6.8,6.8,0,0,1,2.6455-5.4l30.38-23.628a6.8343,6.8343,0,0,1,11.0371,5.4082Z"
          fill="#aeedd6" />
        <g>
          <path
            d="M942.302,511.7468h-5v-118.28a6.86,6.86,0,0,1,.8213-3.2363,6.8386,6.8386,0,0,1,9.2666-2.7715l47.74,25.6934a6.8164,6.8164,0,0,1,3.5957,6.0234v92.0693h-5V419.1726a1.8252,1.8252,0,0,0-.9629-1.6162L945.0179,391.86a1.8405,1.8405,0,0,0-2.7159,1.6133Z"
            fill="#aeedd6" />
          <rect x="941.7405" y="429.6931" width="26.042" height="5" fill="#aeedd6" />
          <rect x="939.802" y="452.8708" width="34.7227" height="5" fill="#aeedd6" />
          <rect x="980.7054" y="386.7741" width="5" height="20.7764" fill="#aeedd6" />
        </g>
        <rect x="906.1194" y="463.9528" width="13.0205" height="5" fill="#aeedd6" />
        <rect x="897.4388" y="483.2526" width="21.7012" height="5" fill="#aeedd6" />
        <rect x="886.2581" y="430.2546" width="5" height="19.0977" fill="#aeedd6" />
      </g>
    </g>
    <g>
      <rect x="350.7766" y="507.4027" width="656.1566" height="5" fill="#aeedd6" />
      <path
        d="M339.3664,523.8128a13.9106,13.9106,0,1,1,13.91-13.91A13.9262,13.9262,0,0,1,339.3664,523.8128Zm0-22.8212a8.9106,8.9106,0,1,0,8.91,8.9111A8.92,8.92,0,0,0,339.3664,500.9916Z"
        fill="#aeedd6" />
      <path
        d="M1018.3434,523.8128a13.9106,13.9106,0,1,1,13.9111-13.91A13.9261,13.9261,0,0,1,1018.3434,523.8128Zm0-22.8212a8.9106,8.9106,0,1,0,8.9111,8.9111A8.92,8.92,0,0,0,1018.3434,500.9916Z"
        fill="#aeedd6" />
    </g>
    <g>
      <g>
        <path
          d="M742.9976,512.37H666.2368a2.5,2.5,0,0,1-2.5-2.5V438.8977a2.5,2.5,0,0,1,2.5-2.5h76.7608a2.5,2.5,0,0,1,2.5,2.5V509.87A2.5,2.5,0,0,1,742.9976,512.37Zm-74.2608-5h71.7608V441.3977H668.7368Z"
          fill="#aeedd6" />
        <path
          d="M713.4741,511.4924H695.76a2.5,2.5,0,0,1-2.5-2.5v-11.81a8.4143,8.4143,0,0,1,8.4043-8.4043H707.57a8.4143,8.4143,0,0,1,8.4043,8.4043v11.81A2.5,2.5,0,0,1,713.4741,511.4924Zm-15.2138-5h12.7138v-9.31a3.4084,3.4084,0,0,0-3.4043-3.4043h-5.9052a3.4084,3.4084,0,0,0-3.4043,3.4043Z"
          fill="#aeedd6" />
        <path
          d="M678.0464,459.1115a2.5,2.5,0,0,1-2.5-2.5v-5.9043a2.5,2.5,0,0,1,5,0v5.9043A2.5,2.5,0,0,1,678.0464,459.1115Z"
          fill="#aeedd6" />
        <path d="M695.76,459.1115a2.5,2.5,0,0,1-2.5-2.5v-5.9043a2.5,2.5,0,1,1,5,0v5.9043A2.5,2.5,0,0,1,695.76,459.1115Z"
          fill="#aeedd6" />
        <path
          d="M713.4741,459.1115a2.5,2.5,0,0,1-2.5-2.5v-5.9043a2.5,2.5,0,1,1,5,0v5.9043A2.5,2.5,0,0,1,713.4741,459.1115Z"
          fill="#aeedd6" />
        <path
          d="M731.188,459.1115a2.5,2.5,0,0,1-2.5-2.5v-5.9043a2.5,2.5,0,1,1,5,0v5.9043A2.5,2.5,0,0,1,731.188,459.1115Z"
          fill="#aeedd6" />
        <path
          d="M678.0464,476.8254a2.5,2.5,0,0,1-2.5-2.5v-5.9043a2.5,2.5,0,0,1,5,0v5.9043A2.5,2.5,0,0,1,678.0464,476.8254Z"
          fill="#aeedd6" />
        <path d="M695.76,476.8254a2.5,2.5,0,0,1-2.5-2.5v-5.9043a2.5,2.5,0,1,1,5,0v5.9043A2.5,2.5,0,0,1,695.76,476.8254Z"
          fill="#aeedd6" />
        <path
          d="M713.4741,476.8254a2.5,2.5,0,0,1-2.5-2.5v-5.9043a2.5,2.5,0,1,1,5,0v5.9043A2.5,2.5,0,0,1,713.4741,476.8254Z"
          fill="#aeedd6" />
        <path
          d="M731.188,476.8254a2.5,2.5,0,0,1-2.5-2.5v-5.9043a2.5,2.5,0,0,1,5,0v5.9043A2.5,2.5,0,0,1,731.188,476.8254Z"
          fill="#aeedd6" />
        <path d="M748.9028,441.3977h-88.57a2.5,2.5,0,0,1,0-5h88.57a2.5,2.5,0,0,1,0,5Z" fill="#aeedd6" />
        <path
          d="M742.9976,441.3977H666.2368a2.5008,2.5008,0,0,1-2.4258-3.1065l4.7871-19.1474a8.3953,8.3953,0,0,1,8.1524-6.3653h55.7344a8.394,8.394,0,0,1,8.1513,6.3643l4.7871,19.1484a2.5007,2.5007,0,0,1-2.4257,3.1065Zm-73.5586-5h70.3564l-4.01-16.041a3.4026,3.4026,0,0,0-3.3027-2.5782H676.7515a3.4,3.4,0,0,0-3.3018,2.5782Z"
          fill="#aeedd6" />
        <path
          d="M678.0464,494.5393a2.5,2.5,0,0,1-2.5-2.5V486.135a2.5,2.5,0,0,1,5,0v5.9043A2.5,2.5,0,0,1,678.0464,494.5393Z"
          fill="#aeedd6" />
        <path
          d="M731.188,494.5393a2.5,2.5,0,0,1-2.5-2.5V486.135a2.5,2.5,0,1,1,5,0v5.9043A2.5,2.5,0,0,1,731.188,494.5393Z"
          fill="#aeedd6" />
      </g>
      <g>
        <path
          d="M838.42,512.6067H790.2026a2.5,2.5,0,0,1-2.5-2.5V459.21a7.8659,7.8659,0,0,1,7.8575-7.8575H833.063A7.8659,7.8659,0,0,1,840.92,459.21v50.8965A2.5,2.5,0,0,1,838.42,512.6067Zm-45.7178-5H835.92V459.21a2.8612,2.8612,0,0,0-2.8574-2.8575H795.56a2.8613,2.8613,0,0,0-2.8575,2.8575Z"
          fill="#aeedd6" />
        <path
          d="M774.0933,512.6067h-8.0362a2.5,2.5,0,0,1-2.5-2.5V413.6711a10.5482,10.5482,0,0,1,10.5362-10.5361h24.1084a10.5481,10.5481,0,0,1,10.5361,10.5361v24.1094a2.5,2.5,0,0,1-2.5,2.5h-8.0361a2.5,2.5,0,0,1,0-5h5.5361V413.6711a5.5423,5.5423,0,0,0-5.5361-5.5361H774.0933a5.5423,5.5423,0,0,0-5.5362,5.5361v93.9356h5.5362a2.5,2.5,0,0,1,0,5Z"
          fill="#aeedd6" />
        <path d="M766.0728,512.6067h-8.0362a2.5,2.5,0,1,1,0-5h8.0362a2.5,2.5,0,1,1,0,5Z" fill="#aeedd6" />
        <path d="M806.2544,424.2082H790.1812a2.5,2.5,0,0,1,0-5h16.0732a2.5,2.5,0,0,1,0,5Z" fill="#aeedd6" />
        <path d="M838.3989,472.425H826.3452a2.5,2.5,0,0,1,0-5h12.0537a2.5,2.5,0,0,1,0,5Z" fill="#aeedd6" />
        <path
          d="M822.311,512.6067H806.2378a2.5,2.5,0,0,1-2.5-2.5V494.0344a10.5366,10.5366,0,0,1,21.0732,0v16.0723A2.5,2.5,0,0,1,822.311,512.6067Zm-13.5732-5H819.811V494.0344a5.5366,5.5366,0,0,0-11.0732,0Z"
          fill="#aeedd6" />
      </g>
    </g>
    <g>
      <path
        d="M257.667,312.535a16.8058,16.8058,0,0,1-14.3012-7.9912,16.7931,16.7931,0,0,1-28.6031,0,16.7925,16.7925,0,0,1-28.6025,0,16.793,16.793,0,0,1-28.603,0,16.7982,16.7982,0,0,1-31.1026-8.8106,2.5082,2.5082,0,0,1,.1011-.7041l8.6812-29.5683a7.2309,7.2309,0,0,1,7.0786-5.5977h116.292a7.2311,7.2311,0,0,1,7.0786,5.5977l8.6811,29.5683a2.5082,2.5082,0,0,1,.1011.7041A16.8205,16.8205,0,0,1,257.667,312.535Zm-14.3012-19.3018a2.5,2.5,0,0,1,2.5,2.5,11.8013,11.8013,0,0,0,23.5976.3428l-8.5957-29.2773c-.0151-.0518-.0288-.1055-.041-.1582a2.26,2.26,0,0,0-2.2192-1.7774H142.3155a2.26,2.26,0,0,0-2.2193,1.7774c-.0122.0527-.0258.1064-.041.1582L131.46,296.076a11.8013,11.8013,0,0,0,23.5977-.3428,2.5,2.5,0,0,1,5,0,11.8015,11.8015,0,1,0,23.603,0,2.5,2.5,0,0,1,5,0,11.8013,11.8013,0,1,0,23.6025,0,2.5,2.5,0,0,1,5,0,11.8016,11.8016,0,1,0,23.6031,0A2.5,2.5,0,0,1,243.3658,293.2332Z"
        fill="#aeedd6" />
      <path
        d="M138.4888,407.8768a2.5,2.5,0,0,1-2.5-2.5v-81.041a2.5,2.5,0,0,1,5,0v81.041A2.5,2.5,0,0,1,138.4888,407.8768Z"
        fill="#aeedd6" />
      <path
        d="M262.4341,407.8768a2.5,2.5,0,0,1-2.5-2.5v-81.041a2.5,2.5,0,0,1,5,0v81.041A2.5,2.5,0,0,1,262.4341,407.8768Z"
        fill="#aeedd6" />
      <path d="M262.4341,384.0418H138.4888a2.5,2.5,0,0,1,0-5H262.4341a2.5,2.5,0,0,1,0,5Z" fill="#aeedd6" />
      <path
        d="M171.8589,384.0418A16.8013,16.8013,0,1,1,188.66,367.24,16.8206,16.8206,0,0,1,171.8589,384.0418Zm0-28.6025A11.8013,11.8013,0,1,0,183.66,367.24,11.8148,11.8148,0,0,0,171.8589,355.4393Z"
        fill="#aeedd6" />
      <path
        d="M171.8565,355.4393a2.5,2.5,0,0,1-2.0776-3.8867l9.5341-14.3018a2.5,2.5,0,0,1,4.16,2.7735L173.939,354.326A2.4966,2.4966,0,0,1,171.8565,355.4393Z"
        fill="#aeedd6" />
      <path
        d="M200.4615,384.0418A16.8013,16.8013,0,1,1,217.2627,367.24,16.8205,16.8205,0,0,1,200.4615,384.0418Zm0-28.6025A11.8013,11.8013,0,1,0,212.2627,367.24,11.8144,11.8144,0,0,0,200.4615,355.4393Z"
        fill="#aeedd6" />
      <path
        d="M200.459,355.4393a2.5,2.5,0,0,1-2.0776-3.8867l9.5342-14.3018a2.5,2.5,0,1,1,4.16,2.7735l-9.5341,14.3017A2.4969,2.4969,0,0,1,200.459,355.4393Z"
        fill="#aeedd6" />
      <path
        d="M229.064,384.0418A16.8013,16.8013,0,1,1,245.8658,367.24,16.8206,16.8206,0,0,1,229.064,384.0418Zm0-28.6025A11.8013,11.8013,0,1,0,240.8658,367.24,11.8144,11.8144,0,0,0,229.064,355.4393Z"
        fill="#aeedd6" />
      <path
        d="M229.0616,355.4393a2.5,2.5,0,0,1-2.0777-3.8867l9.5342-14.3018a2.5,2.5,0,0,1,4.16,2.7735l-9.5342,14.3017A2.4967,2.4967,0,0,1,229.0616,355.4393Z"
        fill="#aeedd6" />
    </g>
    <g>
      <path
        d="M447.8882,511.1414a10.8053,10.8053,0,0,1-2.586-.3148,10.69,10.69,0,0,1-6.64-4.8772L421.92,479.1634l-16.7535,26.8119c-.0338.0567-.0893.1453-.1465.2338a10.7645,10.7645,0,1,1-18.0874-11.6767c.0188-.0292.0384-.0576.0585-.086l24.1636-33.6914v-20.88A10.7769,10.7769,0,0,1,421.9192,429.11a2.1376,2.1376,0,1,1,0,4.2752,6.4972,6.4972,0,0,0-6.49,6.49v21.5672a2.1407,2.1407,0,0,1-.4,1.2458l-24.5318,34.205a6.4892,6.4892,0,0,0,10.9284,7.0006l.0948-.1511,18.5859-29.7452a2.1379,2.1379,0,0,1,3.6255,0l18.5713,29.7118A6.49,6.49,0,1,0,453.42,497.01l-.0764-.1211L428.8092,462.688a2.1382,2.1382,0,0,1-.4008-1.2458v-3.163a2.1375,2.1375,0,0,1,3.105-1.9063,27.2229,27.2229,0,0,0,11.9939,2.9317c11.108,0,24.7407-2.4824,26.49-14.3111a7.4054,7.4054,0,0,1,.14-.769c.4041-4.3595.7293-9.023-.2747-10.1194-.5933-.6471-2.7188-.69-4.67-.68h-.0121a2.1376,2.1376,0,0,1-.0113-4.2752c3.3559-.0243,6.0642.1227,7.8461,2.0674,2.057,2.2462,2.0846,5.8626,1.3565,13.6464a2.1564,2.1564,0,0,1-.1069.4968c-.0117.071-.0238.1579-.0384.2581-1.7377,11.75-12.3672,17.9608-30.74,17.9608a31.5737,31.5737,0,0,1-10.03-1.7468l23.3958,32.6134q.0282.0389.0551.08c.0572.0885.114.1778.1687.268a10.7715,10.7715,0,0,1-9.1883,16.3468Zm26.1154-65.2628-.0021.0026Zm.0017-.0033-.0008.0017Z"
        fill="#aeedd6" />
      <g>
        <path
          d="M421.9192,416.1309A19.3916,19.3916,0,1,1,441.3109,396.74,19.4135,19.4135,0,0,1,421.9192,416.1309Zm0-34.508A15.1164,15.1164,0,1,0,437.0357,396.74,15.1338,15.1338,0,0,0,421.9192,381.6229Z"
          fill="#aeedd6" />
        <path
          d="M396.04,414.4342a2.1374,2.1374,0,0,1-1.103-3.97L446.7,379.3559a2.1373,2.1373,0,1,1,2.2019,3.6639l-51.7625,31.1088A2.1259,2.1259,0,0,1,396.04,414.4342Z"
          fill="#aeedd6" />
        <path
          d="M465.181,433.4255H465.18l-99.3379-.04a2.1376,2.1376,0,0,1,.0008-4.2752h.0009l99.3378.04a2.1376,2.1376,0,0,1-.0008,4.2752Z"
          fill="#aeedd6" />
        <path
          d="M378.7836,459.2662H357.2159a6.458,6.458,0,0,1-6.4512-6.45V435.5614a6.4586,6.4586,0,0,1,6.4512-6.4512h8.6272a2.1378,2.1378,0,0,1,1.9118,1.1815l12.94,25.8808a2.1375,2.1375,0,0,1-1.9117,3.0937Zm-21.5677-25.8808a2.1784,2.1784,0,0,0-2.176,2.176v17.2544a2.1782,2.1782,0,0,0,2.176,2.1752H375.325l-10.8028-21.6056Z"
          fill="#aeedd6" />
      </g>
    </g>
    <g>
      <path
        d="M1125.9848,407.7851h-5V350.37a4.6816,4.6816,0,0,0-4.6768-4.6767h-28.707a4.6816,4.6816,0,0,0-4.6768,4.6767v57.4151h-5V350.37a9.6875,9.6875,0,0,1,9.6768-9.6767h28.707a9.6875,9.6875,0,0,1,9.6768,9.6767Z"
        fill="#aeedd6" />
      <rect x="1080.4242" y="362.2245" width="43.0605" height="5" fill="#aeedd6" />
      <rect x="1080.4242" y="383.7548" width="43.0605" height="5" fill="#aeedd6" />
      <polygon
        points="1114.228 344.58 1101.954 326.17 1089.681 344.58 1085.521 341.807 1101.954 317.156 1118.388 341.807 1114.228 344.58"
        fill="#aeedd6" />
    </g>
    <path
      d="M1249.6566,406.2138h-5V349.8085a1.6465,1.6465,0,0,0-.6416-1.3086l-29.1289-22.6543a1.6546,1.6546,0,0,0-2.3271.2822,1.6567,1.6567,0,0,0-.3506,1.0205v79.0655h-5V327.1562a6.6546,6.6546,0,0,1,10.752-5.254l29.122,22.6485a6.6159,6.6159,0,0,1,2.5742,5.2558Z"
      fill="#aeedd6" />
    <g>
      <path
        d="M1195.5649,406.2138h-5V285.869a1.67,1.67,0,0,0-.2-.7783,1.6621,1.6621,0,0,0-2.25-.6719l-45.7715,24.6329a1.6489,1.6489,0,0,0-.8711,1.458v95.7041h-5V310.5126a6.64,6.64,0,0,1,3.5029-5.8643l45.7686-24.6308a6.6615,6.6615,0,0,1,9.8213,5.8447Z"
        fill="#aeedd6" />
      <rect x="1168.099" y="320.495" width="24.9658" height="5" fill="#aeedd6" />
      <rect x="1159.7768" y="337.1386" width="33.2881" height="5" fill="#aeedd6" />
      <path
        d="M1177.6352,407.4276h-21.6436V388.2841a10.8218,10.8218,0,0,1,21.6436,0Zm-16.6436-5h11.6436V388.2841a5.8218,5.8218,0,0,0-11.6436,0Z"
        fill="#aeedd6" />
      <rect x="1148.9555" y="279.454" width="5" height="19.917" fill="#aeedd6" />
    </g>
    <rect x="1209.7084" y="349.622" width="12.4824" height="5" fill="#aeedd6" />
    <rect x="1209.7084" y="366.2655" width="20.8047" height="5" fill="#aeedd6" />
    <rect x="1236.3344" y="322.995" width="5" height="18.3086" fill="#aeedd6" />
    <g>
      <path
        d="M1020.94,498.1194c-.002-.4482.1113-43.91,26.1475-70.06,13.1064-13.1631,30.6484-19.8379,52.14-19.8379H1258.804v-5H1099.2273c-22.8818,0-41.624,7.1778-55.7051,21.3321-27.5049,27.6484-27.5918,71.7158-27.582,73.5781"
        fill="#aeedd6" />
      <path
        d="M1284.1252,405.7219a13.9106,13.9106,0,1,1-13.91-13.91A13.9261,13.9261,0,0,1,1284.1252,405.7219Zm-5,0a8.9106,8.9106,0,1,0-8.91,8.91A8.92,8.92,0,0,0,1279.1252,405.7219Z"
        fill="#aeedd6" />
    </g>
    <g>
      <path
        d="M337.06,498.8914c.002-.4483-.1113-43.91-26.1475-70.06-13.1064-13.1631-30.6484-19.8379-52.14-19.8379H99.196v-5H258.7727c22.8818,0,41.624,7.1778,55.7051,21.3321,27.5049,27.6484,27.5918,71.7158,27.582,73.5781"
        fill="#aeedd6" />
      <path
        d="M87.7849,392.5838a13.91,13.91,0,1,1-13.91,13.91A13.9263,13.9263,0,0,1,87.7849,392.5838Zm0,22.82a8.91,8.91,0,1,0-8.91-8.91A8.92,8.92,0,0,0,87.7849,415.4041Z"
        fill="#aeedd6" />
    </g>
  </g>
</svg>
