<svg xmlns="http://www.w3.org/2000/svg" viewBox="0 0 40 40" style="enable-background:new 0 0 40 40" xml:space="preserve" fill="currentColor">
    <path d="M37.3 4.1c-.2-.7-.9-1-1.5-.7L25.3 8.8c-.3.2-.5.5-.6.8-.2.7.1 1.5.6 1.8.3.1.6.1.9 0l10.5-5.5c.6-.3.8-1.1.6-1.8zm-12.7 27-5-5.2-3.4 1.7c-.7.3-1.5 0-1.7-.9-.3-.8 0-1.7.7-2.1l2.2-1.1-3.5-3.7-3.8 3.2-3.8 3.2c-.8.7-1.5 1.5-2 2.3-.6 1-1 2-1.3 2.9-.3.9-.4 1.6-.4 2.3 0 .4 0 .9.2 1.1.1.2.5.5 1.1.8.7.4 1.5.7 2.5.9 1.2.2 2.6.4 4.1.2 1.3-.1 2.5-.4 3.7-1 3.4-1.5 6.9-3.1 10.4-4.6zm3.4-.7c.7.8.6 2.3-.4 2.7-4.2 1.9-8.4 3.8-12.5 5.7-1.5.7-3 1-4.4 1.2-1.7.2-3.3 0-4.7-.3-1.2-.2-2.3-.6-3.1-1.1-1-.5-1.8-1.2-2.2-1.9-.4-.7-.7-1.5-.7-3 0-1 .2-2.2.5-3.3.4-1.2.9-2.6 1.7-3.8.7-1.1 1.5-2.1 2.6-3 2.7-2.4 5.5-4.7 8.3-7.1.5-.4 1.2-.4 1.6.1l3.7 3.9v-7.3c0-.6.3-1.2.8-1.5l2.7-1.4c0-.7.1-1.3.3-1.9.4-1.1 1.1-2 2-2.5L35 .3c1.9-.8 3.9.3 4.7 2.5.8 2.3-.1 5-2 6l-10.5 5.5c-.9.5-2 .5-2.9 0-.5-.2-1-.6-1.4-1.1l-1.9 1v9l7 7.2z" style="fill-rule:evenodd;clip-rule:evenodd"/>
    <defs>
        <filter id="a" filterUnits="userSpaceOnUse">
            <feColorMatrix values="1 0 0 0 0 0 1 0 0 0 0 0 1 0 0 0 0 0 1 0"/>
        </filter>
    </defs>
    <mask maskUnits="userSpaceOnUse" id="b">
        <path d="M37.3 4.1c-.2-.7-.9-1-1.5-.7L25.3 8.8c-.3.2-.5.5-.6.8-.2.7.1 1.5.6 1.8.3.1.6.1.9 0l10.5-5.5c.6-.3.8-1.1.6-1.8zm-12.7 27-5-5.2-3.4 1.7c-.7.3-1.5 0-1.7-.9-.3-.8 0-1.7.7-2.1l2.2-1.1-3.5-3.7-3.8 3.2-3.8 3.2c-.8.7-1.5 1.5-2 2.3-.6 1-1 2-1.3 2.9-.3.9-.4 1.6-.4 2.3 0 .4 0 .9.2 1.1.1.2.5.5 1.1.8.7.4 1.5.7 2.5.9 1.2.2 2.6.4 4.1.2 1.3-.1 2.5-.4 3.7-1 3.4-1.5 6.9-3.1 10.4-4.6zm3.4-.7c.7.8.6 2.3-.4 2.7-4.2 1.9-8.4 3.8-12.5 5.7-1.5.7-3 1-4.4 1.2-1.7.2-3.3 0-4.7-.3-1.2-.2-2.3-.6-3.1-1.1-1-.5-1.8-1.2-2.2-1.9-.4-.7-.7-1.5-.7-3 0-1 .2-2.2.5-3.3.4-1.2.9-2.6 1.7-3.8.7-1.1 1.5-2.1 2.6-3 2.7-2.4 5.5-4.7 8.3-7.1.5-.4 1.2-.4 1.6.1l3.7 3.9v-7.3c0-.6.3-1.2.8-1.5l2.7-1.4c0-.7.1-1.3.3-1.9.4-1.1 1.1-2 2-2.5L35 .3c1.9-.8 3.9.3 4.7 2.5.8 2.3-.1 5-2 6l-10.5 5.5c-.9.5-2 .5-2.9 0-.5-.2-1-.6-1.4-1.1l-1.9 1v9l7 7.2z" style="fill-rule:evenodd;clip-rule:evenodd;fill:#fff;filter:url(#a)"/>
    </mask>
</svg>
