<svg xmlns="http://www.w3.org/2000/svg" viewBox="0 0 40 40" style="enable-background:new 0 0 40 40" xml:space="preserve" fill="currentColor">
    <path d="M17.3 0C7.8 0 0 7.8 0 17.3s7.8 17.3 17.3 17.3c4.2 0 8.1-1.5 11.1-4l8.9 8.9.2.2c.6.4 1.4.4 2-.2.6-.6.6-1.6 0-2.2l-8.9-8.9c2.5-3 4-6.9 4-11.1C34.7 7.8 26.9 0 17.3 0zm10.2 27.4c2.6-2.6 4.1-6.1 4.1-10 0-7.9-6.4-14.3-14.3-14.3-7.8 0-14.2 6.4-14.2 14.2 0 7.9 6.4 14.3 14.3 14.3 3.9 0 7.5-1.6 10-4.1 0 0 0-.1.1-.1-.1 0 0 0 0 0z" style="fill-rule:evenodd;clip-rule:evenodd"/>
</svg>
