<svg width="40" height="40" viewBox="0 0 40 40" fill="none" xmlns="http://www.w3.org/2000/svg">
<path fill-rule="evenodd" clip-rule="evenodd" d="M16.1123 31C15.209 31 14.3718 30.5929 13.7571 29.8507L8.00134 23.3107C7.35581 22.5775 7 21.6131 7 20.5948C7 19.5778 7.35581 18.6134 8.00134 17.8789C9.2891 16.4163 11.5121 16.4253 12.736 17.8994L15.9317 21.5309C16.0165 21.6285 16.2478 21.6285 16.336 21.5309L27.2814 9.09041C28.5713 7.62652 30.7932 7.63936 32.016 9.11224C32.6461 9.82878 33.0118 10.8458 32.9997 11.8834C32.9865 12.9068 32.6241 13.8519 31.9796 14.5441L18.4907 29.8725C17.8507 30.5994 17.0068 31 16.1123 31ZM10.3808 18.806C9.94895 18.806 9.54137 18.9987 9.23292 19.3492C8.92998 19.6934 8.76364 20.1364 8.76364 20.5948C8.76364 21.0532 8.92998 21.495 9.23292 21.8391L15.0064 28.3997C15.6078 29.1252 16.6499 29.0931 17.2602 28.4009L30.7657 13.0506C31.0697 12.7245 31.2295 12.3058 31.2361 11.8525C31.2416 11.3697 31.0752 10.9113 30.7657 10.5607C30.1631 9.83648 29.1221 9.86474 28.5107 10.5607L17.5642 23.0025C16.8097 23.8552 15.4525 23.8552 14.7012 23.0025L11.4868 19.3492C11.1893 18.9909 10.8027 18.806 10.3808 18.806Z" fill="black"/>
<mask id="mask0_0_2613" style="mask-type:alpha" maskUnits="userSpaceOnUse" x="7" y="8" width="26" height="23">
<path fill-rule="evenodd" clip-rule="evenodd" d="M16.1123 31C15.209 31 14.3718 30.5929 13.7571 29.8507L8.00134 23.3107C7.35581 22.5775 7 21.6131 7 20.5948C7 19.5778 7.35581 18.6134 8.00134 17.8789C9.2891 16.4163 11.5121 16.4253 12.736 17.8994L15.9317 21.5309C16.0165 21.6285 16.2478 21.6285 16.336 21.5309L27.2814 9.09041C28.5713 7.62652 30.7932 7.63936 32.016 9.11224C32.6461 9.82878 33.0118 10.8458 32.9997 11.8834C32.9865 12.9068 32.6241 13.8519 31.9796 14.5441L18.4907 29.8725C17.8507 30.5994 17.0068 31 16.1123 31ZM10.3808 18.806C9.94895 18.806 9.54137 18.9987 9.23292 19.3492C8.92998 19.6934 8.76364 20.1364 8.76364 20.5948C8.76364 21.0532 8.92998 21.495 9.23292 21.8391L15.0064 28.3997C15.6078 29.1252 16.6499 29.0931 17.2602 28.4009L30.7657 13.0506C31.0697 12.7245 31.2295 12.3058 31.2361 11.8525C31.2416 11.3697 31.0752 10.9113 30.7657 10.5607C30.1631 9.83648 29.1221 9.86474 28.5107 10.5607L17.5642 23.0025C16.8097 23.8552 15.4525 23.8552 14.7012 23.0025L11.4868 19.3492C11.1893 18.9909 10.8027 18.806 10.3808 18.806Z" fill="white"/>
</mask>
<g mask="url(#mask0_0_2613)">
</g>
</svg>
