<svg width="40" height="40" viewBox="0 0 40 40" fill="none" xmlns="http://www.w3.org/2000/svg">
<path fill-rule="evenodd" clip-rule="evenodd" d="M16.4706 30.8333V30.1719C16.4706 29.8298 16.8336 29.5333 17.3176 29.5333H22.4303C22.884 29.5561 23.2471 29.8298 23.2471 30.1719V30.8333C23.2471 31.3579 22.7328 31.7912 22.0672 31.8596L21.8555 32.4526C21.7345 32.7719 21.3412 33 20.9176 33H18.8C18.3462 33 17.9529 32.7719 17.8622 32.4526L17.6504 31.8596C16.9849 31.7912 16.4706 31.3579 16.4706 30.8333ZM20.1412 10.4667C20.6118 10.4667 20.9882 10.1893 20.9882 9.84267V7.624C20.9882 7.27733 20.6118 7 20.1412 7C19.6706 7 19.2941 7.27733 19.2941 7.624V9.84267C19.2941 10.1893 19.6706 10.4667 20.1412 10.4667ZM8.60988 19.5003H10.7784C11.0946 19.5003 11.3882 19.1151 11.3882 18.6336C11.3882 18.1522 11.1172 17.767 10.7784 17.767H8.60988C8.27106 17.767 8 18.1522 8 18.6336C8 19.1151 8.27106 19.5003 8.60988 19.5003ZM28.6118 18.6336C28.6118 19.1151 28.8827 19.5003 29.2214 19.5003H31.389C31.7277 19.5003 31.9987 19.1151 31.9987 18.6336C32.0213 18.1522 31.7503 17.767 31.389 17.767H29.2214C28.8827 17.767 28.6118 18.1522 28.6118 18.6336ZM27.128 13.1994C27.32 13.1994 27.5121 13.115 27.6493 12.9744L29.5148 11.0617C29.8166 10.7523 29.8166 10.2742 29.5148 9.96478C29.2131 9.65538 28.7467 9.65538 28.4449 9.96478L26.5793 11.8774C26.2775 12.1868 26.2775 12.665 26.5793 12.9744C26.7439 13.115 26.9359 13.1994 27.128 13.1994ZM11.5311 12.9744C11.6683 13.115 11.8603 13.1994 12.0524 13.1994C12.2444 13.1994 12.4365 13.115 12.5737 12.9744C12.8754 12.665 12.8754 12.1868 12.5737 11.8774L10.7081 9.96478C10.4063 9.65538 9.93989 9.65538 9.6381 9.96478C9.33632 10.2742 9.33632 10.7523 9.6381 11.0617L11.5311 12.9744ZM13.0825 19.0737C13.0559 15.3146 16.0439 12.2269 19.7789 12.2H19.8322C23.5672 12.2 26.6353 15.2341 26.6353 18.9931C26.6353 20.7384 25.9416 22.4568 24.7411 23.7188C24.0475 24.4437 23.5939 25.3298 23.4605 26.3232C23.3271 27.1824 22.5801 27.8 21.7264 27.8H17.9914C17.111 27.8 16.3907 27.1824 16.2573 26.3232C16.0972 25.3566 15.6437 24.4169 14.9767 23.7188C13.8029 22.4299 13.1092 20.7921 13.0825 19.0737ZM14.7767 19.0816C14.8024 20.3751 15.2913 21.6169 16.2177 22.5483C17.0669 23.4279 17.6588 24.6179 17.8389 25.8338C17.8646 25.9891 17.9676 26.0408 18.0962 26.0408H19.2027V21.8498L17.7102 20.3493C17.4529 20.0905 17.4529 19.6507 17.7102 19.392C17.9676 19.1333 18.405 19.1333 18.6624 19.392L19.8718 20.608L21.0812 19.392C21.3386 19.1333 21.776 19.1333 22.0334 19.392C22.2907 19.6507 22.2907 20.0905 22.0334 20.3493L20.5409 21.8498V26.0667H21.6474C21.776 26.0667 21.879 25.9632 21.9047 25.8597C22.0848 24.6179 22.6509 23.4796 23.5259 22.5741C24.4265 21.6428 24.9412 20.3493 24.9412 19.0299C24.9412 16.21 22.651 13.9333 19.8203 13.9333H19.7689C17.0154 13.9333 14.751 16.2617 14.7767 19.0816Z" fill="black"/>
<mask id="mask0_0_2577" style="mask-type:alpha" maskUnits="userSpaceOnUse" x="8" y="7" width="24" height="26">
<path fill-rule="evenodd" clip-rule="evenodd" d="M16.4706 30.8333V30.1719C16.4706 29.8298 16.8336 29.5333 17.3176 29.5333H22.4303C22.884 29.5561 23.2471 29.8298 23.2471 30.1719V30.8333C23.2471 31.3579 22.7328 31.7912 22.0672 31.8596L21.8555 32.4526C21.7345 32.7719 21.3412 33 20.9176 33H18.8C18.3462 33 17.9529 32.7719 17.8622 32.4526L17.6504 31.8596C16.9849 31.7912 16.4706 31.3579 16.4706 30.8333ZM20.1412 10.4667C20.6118 10.4667 20.9882 10.1893 20.9882 9.84267V7.624C20.9882 7.27733 20.6118 7 20.1412 7C19.6706 7 19.2941 7.27733 19.2941 7.624V9.84267C19.2941 10.1893 19.6706 10.4667 20.1412 10.4667ZM8.60988 19.5003H10.7784C11.0946 19.5003 11.3882 19.1151 11.3882 18.6336C11.3882 18.1522 11.1172 17.767 10.7784 17.767H8.60988C8.27106 17.767 8 18.1522 8 18.6336C8 19.1151 8.27106 19.5003 8.60988 19.5003ZM28.6118 18.6336C28.6118 19.1151 28.8827 19.5003 29.2214 19.5003H31.389C31.7277 19.5003 31.9987 19.1151 31.9987 18.6336C32.0213 18.1522 31.7503 17.767 31.389 17.767H29.2214C28.8827 17.767 28.6118 18.1522 28.6118 18.6336ZM27.128 13.1994C27.32 13.1994 27.5121 13.115 27.6493 12.9744L29.5148 11.0617C29.8166 10.7523 29.8166 10.2742 29.5148 9.96478C29.2131 9.65538 28.7467 9.65538 28.4449 9.96478L26.5793 11.8774C26.2775 12.1868 26.2775 12.665 26.5793 12.9744C26.7439 13.115 26.9359 13.1994 27.128 13.1994ZM11.5311 12.9744C11.6683 13.115 11.8603 13.1994 12.0524 13.1994C12.2444 13.1994 12.4365 13.115 12.5737 12.9744C12.8754 12.665 12.8754 12.1868 12.5737 11.8774L10.7081 9.96478C10.4063 9.65538 9.93989 9.65538 9.6381 9.96478C9.33632 10.2742 9.33632 10.7523 9.6381 11.0617L11.5311 12.9744ZM13.0825 19.0737C13.0559 15.3146 16.0439 12.2269 19.7789 12.2H19.8322C23.5672 12.2 26.6353 15.2341 26.6353 18.9931C26.6353 20.7384 25.9416 22.4568 24.7411 23.7188C24.0475 24.4437 23.5939 25.3298 23.4605 26.3232C23.3271 27.1824 22.5801 27.8 21.7264 27.8H17.9914C17.111 27.8 16.3907 27.1824 16.2573 26.3232C16.0972 25.3566 15.6437 24.4169 14.9767 23.7188C13.8029 22.4299 13.1092 20.7921 13.0825 19.0737ZM14.7767 19.0816C14.8024 20.3751 15.2913 21.6169 16.2177 22.5483C17.0669 23.4279 17.6588 24.6179 17.8389 25.8338C17.8646 25.9891 17.9676 26.0408 18.0962 26.0408H19.2027V21.8498L17.7102 20.3493C17.4529 20.0905 17.4529 19.6507 17.7102 19.392C17.9676 19.1333 18.405 19.1333 18.6624 19.392L19.8718 20.608L21.0812 19.392C21.3386 19.1333 21.776 19.1333 22.0334 19.392C22.2907 19.6507 22.2907 20.0905 22.0334 20.3493L20.5409 21.8498V26.0667H21.6474C21.776 26.0667 21.879 25.9632 21.9047 25.8597C22.0848 24.6179 22.6509 23.4796 23.5259 22.5741C24.4265 21.6428 24.9412 20.3493 24.9412 19.0299C24.9412 16.21 22.651 13.9333 19.8203 13.9333H19.7689C17.0154 13.9333 14.751 16.2617 14.7767 19.0816Z" fill="white"/>
</mask>
<g mask="url(#mask0_0_2577)">
</g>
</svg>
