<svg xmlns="http://www.w3.org/2000/svg" viewBox="0 0 40 40" style="enable-background:new 0 0 40 40" xml:space="preserve" fill="currentColor">
    <path d="M20.9 8.9s2.3 1.4 6.8 4.2c.2.1.3.3.1.5L14.4 35.1c-.2.3-.3.4-.5.5L6.6 40c-.1.1-.3.1-.5 0-.1-.1-.2-.3-.2-.4l.8-8.4c0-.3.1-.4.2-.7L20.4 9c.1-.2.3-.2.5-.1zM9.5 37.1l4.2-2.6-.4-1.2c-.1-.4-.2-.5-.6-.4l-1.1.1c-.4 0-.7 0-1-.2-.3-.2-.5-.4-.6-.8l-.4-1c-.1-.4-.3-.4-.7-.4l-1.3.2-.4 4.8c.8.2 1.8.9 2.3 1.5zM31 1.4c2.3 1.4 2.7 3 1.2 5.3l-2.6 4.1c-.1.2-.3.3-.5.1l-6.8-4.2c-.2-.1-.3-.3-.1-.5l2.6-4.1c1.4-2.3 3-2.6 5.3-1.2l.9.5zM18.6 38.9c-.3 0-.5-.9-.5-1.3s.2-1.3.5-1.3h16c.3 0 .5.9.5 1.3 0 .5-.2 1.3-.5 1.3h-16z" style="fill-rule:evenodd;clip-rule:evenodd"/>
</svg>
