<svg width="40" height="40" viewBox="0 0 40 40" fill="none" xmlns="http://www.w3.org/2000/svg">
<path fill-rule="evenodd" clip-rule="evenodd" d="M20.7565 12.8019C20.7565 12.8019 22.2365 13.7185 25.1964 15.5516C25.337 15.6387 25.3637 15.7536 25.2759 15.8929L16.5164 29.7892C16.4064 29.9633 16.3472 30.0217 16.17 30.1275L11.4473 32.9572C11.3522 33.0148 11.2323 33.0141 11.1383 32.956C11.0438 32.8971 10.9905 32.7908 11.0014 32.681L11.4986 27.2338C11.5175 27.0299 11.544 26.9519 11.6536 26.7773L20.4123 12.8807C20.5001 12.7414 20.6157 12.7149 20.7565 12.8019ZM13.3805 31.1255L16.103 29.4664L15.843 28.6837C15.7602 28.4327 15.6852 28.3878 15.4264 28.4107L14.6931 28.4718C14.4281 28.4943 14.2157 28.4529 14.0437 28.3466C13.872 28.2402 13.7411 28.0691 13.6457 27.8223L13.3805 27.1437C13.2868 26.901 13.2113 26.8553 12.9495 26.8908L12.1261 27.0027L11.841 30.1454C12.3436 30.2818 13.0349 30.7361 13.3805 31.1255ZM27.347 7.93198C28.8321 8.85221 29.0699 9.87336 28.1415 11.3468L26.4493 14.0309C26.3615 14.1703 26.2456 14.1968 26.1051 14.11L21.6655 11.3594C21.5249 11.2724 21.4982 11.1575 21.586 11.0181L23.2787 8.33286C24.207 6.85999 25.2372 6.62394 26.723 7.54478L27.347 7.93198ZM19.2575 32.2592C19.0687 32.2592 18.9515 31.689 18.9515 31.3932C18.9515 31.1397 19.0687 30.5273 19.2575 30.5273H29.6721C29.861 30.5273 30 31.1397 30 31.3932C30 31.689 29.861 32.2592 29.6721 32.2592H19.2575Z" fill="black"/>
</svg>
