<svg width="40" height="40" viewBox="0 0 40 40" fill="none" xmlns="http://www.w3.org/2000/svg">
<path fill-rule="evenodd" clip-rule="evenodd" d="M31.2237 9.64553V9.6296C31.0662 9.18359 30.6332 8.97652 30.2658 9.16767L23.4291 12.7357C23.2454 12.8313 23.1142 13.0225 23.0354 13.2295C22.8911 13.6915 23.0748 14.2012 23.4553 14.3923C23.6259 14.472 23.8228 14.472 24.0196 14.3764L30.8432 10.8083C31.2237 10.6172 31.3943 10.0915 31.2237 9.64553ZM22.9829 27.1832L19.7024 23.7904L17.4978 24.9213C17.0517 25.1443 16.553 24.9054 16.3693 24.3638C16.1856 23.8382 16.3955 23.2329 16.8286 23.0099L18.2589 22.2771L15.9625 19.9037L13.5743 21.9426L11.1204 24.0134C10.6086 24.4594 10.1756 24.9851 9.82129 25.5266C9.42762 26.1638 9.15205 26.8169 8.96834 27.4381C8.79775 27.9956 8.71902 28.5053 8.7059 28.9354C8.7059 29.1903 8.73214 29.5089 8.81087 29.6363C8.88961 29.7956 9.13893 29.9708 9.50635 30.162C9.93939 30.4009 10.5036 30.592 11.1335 30.7354C11.9209 30.8947 12.8525 30.9743 13.7973 30.8788C14.6109 30.7991 15.4376 30.608 16.1987 30.2575C18.4689 29.2381 20.7259 28.2186 22.9829 27.1832ZM25.2006 26.7532C25.6861 27.247 25.568 28.2346 24.9513 28.5053C22.235 29.7478 19.5186 30.9743 16.8023 32.2009C15.8575 32.6309 14.8734 32.8699 13.9286 32.9495C12.8263 33.061 11.7634 32.9814 10.8448 32.7743C10.0706 32.615 9.37513 32.3761 8.824 32.0734C8.16788 31.723 7.66924 31.2929 7.39367 30.815C7.18371 30.369 7 29.8752 7 28.8876C7.01312 28.2346 7.13122 27.4859 7.3543 26.7532C7.5905 25.9408 7.95793 25.0806 8.46969 24.2683C8.91585 23.5674 9.46699 22.8984 10.1493 22.3249C11.934 20.7958 13.7317 19.2666 15.5164 17.7374C15.8313 17.4666 16.2643 17.4825 16.5661 17.8011L18.9938 20.3179V15.5552C18.9938 15.141 19.2037 14.7746 19.5186 14.5994L21.277 13.6915C21.2639 13.2614 21.3295 12.8472 21.4476 12.4649C21.6838 11.7481 22.1431 11.1588 22.7599 10.8243L29.754 7.17655C30.9744 6.63497 32.2997 7.38363 32.7984 8.81723C33.3364 10.3145 32.759 12.0827 31.5255 12.7198L24.6888 16.2879C24.0721 16.6065 23.4028 16.6065 22.8255 16.3197C22.4843 16.1605 22.1825 15.9056 21.9463 15.6029L20.7128 16.2401V22.086L25.2006 26.7532Z" fill="black"/>
<mask id="mask0_0_2604" style="mask-type:alpha" maskUnits="userSpaceOnUse" x="7" y="7" width="26" height="26">
<path fill-rule="evenodd" clip-rule="evenodd" d="M31.2237 9.64553V9.6296C31.0662 9.18359 30.6332 8.97652 30.2658 9.16767L23.4291 12.7357C23.2454 12.8313 23.1142 13.0225 23.0354 13.2295C22.8911 13.6915 23.0748 14.2012 23.4553 14.3923C23.6259 14.472 23.8228 14.472 24.0196 14.3764L30.8432 10.8083C31.2237 10.6172 31.3943 10.0915 31.2237 9.64553ZM22.9829 27.1832L19.7024 23.7904L17.4978 24.9213C17.0517 25.1443 16.553 24.9054 16.3693 24.3638C16.1856 23.8382 16.3955 23.2329 16.8286 23.0099L18.2589 22.2771L15.9625 19.9037L13.5743 21.9426L11.1204 24.0134C10.6086 24.4594 10.1756 24.9851 9.82129 25.5266C9.42762 26.1638 9.15205 26.8169 8.96834 27.4381C8.79775 27.9956 8.71902 28.5053 8.7059 28.9354C8.7059 29.1903 8.73214 29.5089 8.81087 29.6363C8.88961 29.7956 9.13893 29.9708 9.50635 30.162C9.93939 30.4009 10.5036 30.592 11.1335 30.7354C11.9209 30.8947 12.8525 30.9743 13.7973 30.8788C14.6109 30.7991 15.4376 30.608 16.1987 30.2575C18.4689 29.2381 20.7259 28.2186 22.9829 27.1832ZM25.2006 26.7532C25.6861 27.247 25.568 28.2346 24.9513 28.5053C22.235 29.7478 19.5186 30.9743 16.8023 32.2009C15.8575 32.6309 14.8734 32.8699 13.9286 32.9495C12.8263 33.061 11.7634 32.9814 10.8448 32.7743C10.0706 32.615 9.37513 32.3761 8.824 32.0734C8.16788 31.723 7.66924 31.2929 7.39367 30.815C7.18371 30.369 7 29.8752 7 28.8876C7.01312 28.2346 7.13122 27.4859 7.3543 26.7532C7.5905 25.9408 7.95793 25.0806 8.46969 24.2683C8.91585 23.5674 9.46699 22.8984 10.1493 22.3249C11.934 20.7958 13.7317 19.2666 15.5164 17.7374C15.8313 17.4666 16.2643 17.4825 16.5661 17.8011L18.9938 20.3179V15.5552C18.9938 15.141 19.2037 14.7746 19.5186 14.5994L21.277 13.6915C21.2639 13.2614 21.3295 12.8472 21.4476 12.4649C21.6838 11.7481 22.1431 11.1588 22.7599 10.8243L29.754 7.17655C30.9744 6.63497 32.2997 7.38363 32.7984 8.81723C33.3364 10.3145 32.759 12.0827 31.5255 12.7198L24.6888 16.2879C24.0721 16.6065 23.4028 16.6065 22.8255 16.3197C22.4843 16.1605 22.1825 15.9056 21.9463 15.6029L20.7128 16.2401V22.086L25.2006 26.7532Z" fill="white"/>
</mask>
<g mask="url(#mask0_0_2604)">
</g>
</svg>
