<svg viewBox="-1 -1 17 18" fill="none" xmlns="http://www.w3.org/2000/svg">
<path fill-rule="evenodd" clip-rule="evenodd" d="M6.00012 2.89844C3.79098 2.89844 2.00012 4.6893 2.00012 6.89844C2.00012 9.10758 3.79098 10.8984 6.00012 10.8984C8.20926 10.8984 10.0001 9.10758 10.0001 6.89844C10.0001 4.6893 8.20926 2.89844 6.00012 2.89844ZM0.00012207 6.89844C0.00012207 3.58473 2.68641 0.898438 6.00012 0.898438C9.31383 0.898438 12.0001 3.58473 12.0001 6.89844C12.0001 8.19427 11.5893 9.39415 10.8909 10.375L15.7072 15.1913C16.0978 15.5819 16.0978 16.215 15.7072 16.6055C15.3167 16.9961 14.6835 16.9961 14.293 16.6055L9.47666 11.7892C8.49584 12.4876 7.29595 12.8984 6.00012 12.8984C2.68641 12.8984 0.00012207 10.2121 0.00012207 6.89844Z" fill="currentColor"/>
</svg>
