<?xml version="1.0" encoding="UTF-8"?>
<svg id="Ebene_1" data-name="Ebene 1" xmlns="http://www.w3.org/2000/svg" width="48" height="48" viewBox="0 0 48 48">
  <g>
    <path d="M45.4229,26.5975l-13.8407-13.8404c-.3037-.2975-.7046-.4612-1.1305-.4612h-.0007c-.4317,.0001-.8377,.1684-1.1428,.4738l-12.0362,12.0359-.6743-1.8106,11.4678-11.4676c.6366-.6372,1.4836-.9884,2.3849-.9887h.0014c.9009,0,1.7475,.3506,2.3849,.9874l.0192,.0196,13.8094,13.8093-1.2424,1.2425Z" fill="#34d399" stroke="#34d399" stroke-miterlimit="10" stroke-width="1.5"/>
    <polygon points="43.8061 37.462 17.097 37.462 17.097 22.6845 18.8541 22.6845 18.8541 35.7048 42.0489 35.7048 42.0489 22.6845 43.8061 23.589 43.8061 37.462" fill="#34d399" stroke="#34d399" stroke-miterlimit="10" stroke-width="1.5"/>
  </g>
  <g>
    <path d="M15.4013,29.0747H4.6085c-1.8073-.0019-3.2754-1.473-3.2737-3.2793,.0003-.5572,.1441-1.1074,.416-1.594L6.8492,12.9302c.2275-.8128,.7495-1.4956,1.4775-1.9292,.7519-.448,1.6339-.5761,2.481-.3614,1.1226,.2843,2.0121,1.1428,2.3382,2.2502l5.1157,11.3116c.8707,1.5583,.3288,3.539-1.2221,4.4344-.4973,.2872-1.0636,.4389-1.6381,.4389ZM10.0008,12.2958c-.2701,0-.5364,.0728-.7749,.2147-.3483,.2077-.5951,.5386-.6946,.9318l-.0515,.1465L3.2954,25.0393c-.1328,.2302-.2032,.4922-.2035,.7576-.001,.8377,.6799,1.5197,1.5176,1.5206H15.3999c.2677,0,.5302-.0703,.7609-.2035,.7252-.4188,.9747-1.3495,.556-2.0748l-.0398-.0773-5.1884-11.4729-.0185-.0687c-.1428-.5299-.5618-.9428-1.0938-1.0775-.1242-.0315-.2502-.0471-.3755-.0471Z" fill="#34d399" stroke="#34d399" stroke-miterlimit="10" stroke-width="1.5"/>
    <path d="M10.8845,34.7333h-.8786v-1.7572h.8786c1.8289,0,3.317-1.488,3.317-3.3169v-.8786h1.7572v.8786c0,2.7978-2.2764,5.074-5.0741,5.074Z" fill="#34d399" stroke="#34d399" stroke-miterlimit="10" stroke-width="1.5"/>
    <rect x="9.1239" y="21.7805" width="1.7572" height="15.6815" fill="#34d399" stroke="#34d399" stroke-miterlimit="10" stroke-width="1.5"/>
  </g>
</svg>