<?xml version="1.0" encoding="UTF-8"?>
<svg id="Ebene_1" data-name="Ebene 1" xmlns="http://www.w3.org/2000/svg" width="48" height="48" viewBox="0 0 48 48">
  <g>
    <path d="M42.6035,26.2556l-12.0192-12.0189c-.2638-.2584-.6119-.4005-.9817-.4005h-.0006c-.3749,.0001-.7275,.1462-.9924,.4115l-10.4521,10.4519-1.0789-1.079,10.4518-10.4517c.5528-.5533,1.2884-.8583,2.071-.8586h.0012c.7823,0,1.5176,.3044,2.071,.8574l.0167,.017,11.992,11.9919-1.0789,1.079Z" fill="#34d399"/>
    <polygon points="41.1995 35.6903 18.0055 35.6903 18.0055 22.8576 19.5314 22.8576 19.5314 34.1644 39.6736 34.1644 39.6736 22.8576 41.1995 22.8576 41.1995 35.6903" fill="#34d399"/>
  </g>
  <g>
    <path d="M16.5329,28.4068H7.1605c-1.5694-.0016-2.8444-1.2791-2.8429-2.8478,.0003-.4839,.1252-.9616,.3612-1.3842l4.4275-9.7878c.1976-.7058,.6509-1.2987,1.283-1.6753,.653-.389,1.4189-.5002,2.1544-.3139,.9748,.2469,1.7473,.9924,2.0305,1.954l4.4424,9.823c.7561,1.3532,.2855,3.0733-1.0613,3.8508-.4318,.2494-.9236,.3811-1.4225,.3811Zm-4.6898-14.5706c-.2345,0-.4658,.0632-.6729,.1865-.3025,.1803-.5168,.4677-.6032,.8092l-.0447,.1272-4.502,9.9435c-.1153,.1999-.1764,.4274-.1767,.6579-.0009,.7274,.5904,1.3197,1.3179,1.3204h9.3703c.2325,0,.4605-.0611,.6607-.1767,.6297-.3637,.8464-1.1719,.4828-1.8017l-.0346-.0671-4.5056-9.963-.0161-.0597c-.124-.4602-.4879-.8187-.9498-.9357-.1079-.0273-.2173-.0409-.326-.0409Z" fill="#34d399"/>
    <path d="M11.8446,32.0501h-.763v-1.5259h.763c1.5882,0,2.8804-1.2921,2.8804-2.8804v-.763h1.5259v.763c0,2.4296-1.9768,4.4063-4.4063,4.4063Z" fill="#34d399"/>
    <rect x="11.0817" y="19.0707" width="1.5259" height="16.6196" fill="#34d399"/>
    <path d="M12.6076,25.284h-.763c-1.8555,0-3.3653-1.5097-3.3653-3.3653v-.763h1.5259v.763c0,1.0142,.8252,1.8394,1.8394,1.8394h.763v1.5259Z" fill="#34d399"/>
  </g>
</svg>