<svg data-name="Ebene 1" xmlns="http://www.w3.org/2000/svg" width="48" height="48">
  <path
    d="M35.047 22.154c-.378 0-.749.032-1.111.09l-2.338-6.078h4.554a.786.786 0 010 1.57 1.425 1.425 0 100 2.849c2.004 0 3.634-1.63 3.634-3.634s-1.63-3.635-3.634-3.635h-5.023a2.534 2.534 0 00-2.358 3.438l1.072 2.788-7.236 3.42-3.234-8.146 2.233-.017a1.425 1.425 0 00-.01-2.85h-.011L14 12.006a1.425 1.425 0 00.01 2.85h.012l2.294-.017 3.71 9.344-1.537.727a6.94 6.94 0 00-5.536-2.756c-3.832 0-6.949 3.117-6.949 6.949s3.117 6.948 6.949 6.948 6.948-3.117 6.948-6.948c0-.558-.068-1.099-.192-1.618l11.16-5.276.409 1.061a6.947 6.947 0 00-3.18 5.833c0 3.831 3.118 6.948 6.95 6.948s6.948-3.117 6.948-6.948-3.118-6.949-6.949-6.949zm-17.995 6.948c0 2.26-1.84 4.1-4.1 4.1s-4.098-1.84-4.098-4.1 1.839-4.098 4.099-4.098c1.113 0 2.123.446 2.863 1.169l-3.472 1.641a1.425 1.425 0 101.218 2.576l3.473-1.642c.01.117.017.235.017.354zm17.995 4.1a4.104 4.104 0 01-4.098-4.1 4.09 4.09 0 011.39-3.072l1.379 3.584a1.425 1.425 0 102.66-1.023l-1.38-3.586.05-.002c2.26 0 4.098 1.84 4.098 4.1S37.307 33.2 35.047 33.2z"
    fill="#34d399" />
</svg>
