<svg data-name="Ebene 1" xmlns="http://www.w3.org/2000/svg" width="860" height="860">
  <g fill="none" stroke="#34d399" stroke-linecap="square" stroke-width="5">
    <path d="m363.668 345.151 32.48-32.48a7.1 7.1 0 0 1 10.04-.003l.004.004 37.579 37.578" />
    <path d="M436.67 345.151v37.05h-71v-37.05" />
  </g>
  <path
    d="M172.122 384.61v-45.128h21.984c5.416 0 9.337 1.353 11.766 4.063 2.428 2.707 3.643 6.21 3.643 10.507 0 2.666-.732 5.266-2.192 7.801-1.462 2.537-3.46 4.32-5.996 5.352l8.445 17.406h-10.96l-8.187-15.924h-8.703v15.924h-9.8Zm9.8-25.206h12.313c3.395 0 5.094-1.783 5.094-5.352 0-1.504-.398-2.761-1.193-3.771-.796-1.01-2.095-1.516-3.9-1.516h-12.314v10.639ZM248.712 384.61l-3.352-8.767h-16.956l-3.352 8.768H214.35l17.794-45.129h9.413l17.857 45.129h-10.702Zm-6.64-17.792-3.868-9.734c-.602-1.461-1.054-2.731-1.354-3.805-.172.732-.623 1.998-1.354 3.804l-3.868 9.735h10.444ZM266.249 339.482h16.634c3.781 0 7.134.635 10.056 1.902s5.233 2.989 6.931 5.159a22.892 22.892 0 0 1 3.804 7.187c.838 2.623 1.258 5.395 1.258 8.316 0 2.15-.238 4.247-.71 6.288s-1.268 4.06-2.385 6.058c-1.118 2-2.515 3.74-4.19 5.223-1.677 1.482-3.804 2.687-6.383 3.611s-5.46 1.385-8.64 1.385H266.25v-45.129Zm17.407 35.781c3.697 0 6.468-1.322 8.317-3.965 1.847-2.642 2.772-5.726 2.772-9.252 0-3.523-.893-6.617-2.676-9.283-1.784-2.664-4.351-3.998-7.704-3.998h-8.316v26.498h7.607ZM187.66 445.986c-4.385 0-8.156-1.17-11.315-3.514-3.159-2.342-5.426-5.576-6.801-9.701l8.767-3.29c1.032 2.192 2.386 3.944 4.062 5.255 1.676 1.312 3.523 1.967 5.544 1.967 2.105 0 3.76-.397 4.965-1.194 1.202-.793 1.804-1.943 1.804-3.447 0-.988-.441-1.871-1.32-2.645-.883-.773-1.807-1.341-2.773-1.709-.967-.363-2.461-.869-4.48-1.513-1.334-.43-2.333-.764-2.999-1a62.173 62.173 0 0 1-2.869-1.13c-1.247-.515-2.191-.987-2.836-1.417-.644-.428-1.419-1.01-2.321-1.74s-1.58-1.493-2.03-2.29c-.453-.794-.85-1.761-1.194-2.9a12.512 12.512 0 0 1-.516-3.643c0-3.61 1.418-6.64 4.255-9.09 2.837-2.45 6.683-3.675 11.54-3.675 4.04 0 7.436 1.055 10.187 3.16 2.75 2.106 4.577 4.813 5.48 8.123l-8.768 2.836c-1.418-3.223-3.89-4.836-7.414-4.836-3.654 0-5.48 1.227-5.48 3.676a2.3 2.3 0 0 0 .516 1.482c.344.43.967.862 1.869 1.29.903.43 1.644.753 2.224.966.58.217 1.601.58 3.063 1.098 1.547.515 2.74.924 3.578 1.224.838.301 1.987.764 3.45 1.385 1.46.625 2.61 1.291 3.448 2a28.814 28.814 0 0 1 2.61 2.545 9.035 9.035 0 0 1 1.968 3.483c.407 1.332.612 2.794.612 4.384 0 4.254-1.59 7.63-4.77 10.121-3.182 2.493-7.2 3.739-12.057 3.739ZM230.66 445.857c-3.395 0-6.372-.676-8.929-2.03-2.557-1.355-4.545-3.17-5.963-5.448a25.861 25.861 0 0 1-3.127-7.35c-.667-2.621-1-5.414-1-8.381 0-2.707.344-5.361 1.032-7.96s1.74-5.073 3.159-7.415 3.406-4.234 5.964-5.674c2.556-1.44 5.512-2.16 8.864-2.16 4.083 0 7.565 1.055 10.444 3.16 2.88 2.106 4.921 4.664 6.124 7.672l-8.767 3.932c-1.247-1.848-2.44-3.201-3.578-4.06-1.14-.86-2.547-1.292-4.223-1.292-1.59 0-2.988.42-4.19 1.258-1.205.838-2.128 1.957-2.773 3.353s-1.118 2.858-1.418 4.383a24.71 24.71 0 0 0-.451 4.803c0 2.28.29 4.428.87 6.447.58 2.022 1.568 3.75 2.966 5.19 1.395 1.441 3.061 2.16 4.996 2.16 2.793 0 5.35-1.934 7.672-5.803l8.96 3.354c-3.653 7.908-9.197 11.861-16.632 11.861ZM283.01 445.212V426.71h-17.923v18.502h-9.8v-45.128h9.8v17.279h17.923v-17.28h9.863v45.13h-9.863ZM340.58 445.212h-8.574l-17.02-23.918c-.43-.558-1.075-1.697-1.934-3.416.129.73.193 1.87.193 3.416v23.918h-9.67v-45.128h8.961l16.569 23.66c.816 1.162 1.44 2.279 1.87 3.353-.13-.902-.194-2.04-.194-3.418v-23.595h9.8v45.128ZM351.282 445.212v-45.128h32.429v9.283h-22.629v7.931h12.636v9.284h-12.636v9.283H385v9.347h-33.718ZM393.444 445.212v-45.128h9.8v35.652h21.662v9.476h-31.462ZM431.288 445.212v-45.128h9.8v35.652h21.662v9.476h-31.462ZM185.145 505.814l-16.247-45.129h10.638l9.736 28.432c.128.3.257.709.386 1.224l.194.71c.085-.387.279-1.032.58-1.934l9.735-28.432h10.509l-16.183 45.129h-9.347ZM216.413 505.814v-45.129h32.429v9.283h-22.63v7.932h12.637v9.283h-12.636v9.283h23.918v9.348h-33.718ZM258.575 505.814v-45.129h21.985c5.416 0 9.336 1.354 11.765 4.063 2.428 2.707 3.643 6.21 3.643 10.507 0 2.666-.732 5.266-2.192 7.801-1.461 2.537-3.46 4.32-5.996 5.352l8.446 17.406h-10.96l-8.188-15.924h-8.703v15.924h-9.8Zm9.8-25.207h12.313c3.395 0 5.094-1.783 5.094-5.352 0-1.503-.398-2.761-1.193-3.771-.796-1.01-2.095-1.516-3.9-1.516h-12.314v10.639ZM304.993 460.685h21.276c5.157 0 8.928 1.172 11.314 3.514 2.386 2.344 3.578 5.254 3.578 8.736 0 4.64-1.698 7.758-5.093 9.348 2.192.816 3.836 2.172 4.932 4.062s1.644 3.867 1.644 5.93c0 3.74-1.268 6.932-3.804 9.574-2.536 2.645-6.446 3.965-11.733 3.965h-22.114v-45.129Zm20.309 17.602c3.91 0 5.866-1.42 5.866-4.256 0-2.793-1.611-4.192-4.835-4.192h-11.54v8.448h10.509Zm2.256 18.308c1.805 0 3.116-.45 3.932-1.353s1.226-1.955 1.226-3.16c0-3.309-2.3-4.963-6.899-4.963h-11.024v9.476h12.765ZM352.056 505.814v-45.129h9.8v45.129h-9.8ZM409.885 505.814h-8.574l-17.02-23.918c-.43-.559-1.075-1.697-1.935-3.416.13.73.194 1.87.194 3.416v23.918h-9.671v-45.129h8.962l16.568 23.66c.817 1.162 1.44 2.28 1.87 3.354-.129-.903-.193-2.041-.193-3.418v-23.596h9.799v45.129ZM420.586 460.685h16.634c3.78 0 7.133.635 10.056 1.902s5.233 2.989 6.931 5.159a22.892 22.892 0 0 1 3.804 7.187c.838 2.623 1.257 5.395 1.257 8.317 0 2.15-.237 4.246-.71 6.287s-1.267 4.06-2.384 6.058c-1.118 2-2.515 3.74-4.19 5.223-1.677 1.482-3.804 2.687-6.383 3.611s-5.46 1.385-8.64 1.385h-16.375v-45.129Zm17.407 35.781c3.696 0 6.468-1.322 8.316-3.965 1.848-2.642 2.773-5.726 2.773-9.252 0-3.523-.893-6.617-2.676-9.283-1.784-2.664-4.351-3.998-7.704-3.998h-8.316v26.498h7.607ZM486.861 506.587c-2.407 0-4.673-.312-6.801-.933a19.096 19.096 0 0 1-5.963-2.967c-1.849-1.353-3.32-3.256-4.416-5.705-1.097-2.45-1.645-5.307-1.645-8.574v-27.723h9.8v27.723c0 3.222.719 5.48 2.16 6.77 1.439 1.288 3.728 1.933 6.865 1.933 3.052 0 5.32-.655 6.802-1.967 1.483-1.31 2.225-3.555 2.225-6.736v-27.723h9.799v27.723c0 3.222-.539 6.05-1.612 8.478-1.075 2.428-2.525 4.33-4.351 5.705a18.877 18.877 0 0 1-5.964 3.03c-2.15.644-4.449.966-6.899.966ZM553.136 505.814h-8.574l-17.021-23.918c-.43-.559-1.074-1.697-1.934-3.416.13.73.194 1.87.194 3.416v23.918h-9.671v-45.129h8.962l16.568 23.66c.817 1.162 1.44 2.28 1.87 3.354-.129-.903-.193-2.041-.193-3.418v-23.596h9.799v45.129ZM582.146 506.587c-3.352 0-6.34-.654-8.96-1.964-2.623-1.31-4.707-3.084-6.254-5.32-1.547-2.235-2.72-4.706-3.514-7.415-.796-2.707-1.192-5.586-1.192-8.638 0-2.836.408-5.598 1.224-8.284s2.009-5.168 3.578-7.447c1.569-2.277 3.664-4.115 6.286-5.512 2.621-1.396 5.566-2.095 8.832-2.095 3.997 0 7.275.925 9.832 2.773 2.557 1.848 4.825 4.361 6.802 7.543l-8.575 4.834c-2.407-3.824-5.093-5.738-8.059-5.738-2.32 0-4.255.763-5.801 2.289-1.548 1.527-2.59 3.277-3.127 5.254-.539 1.978-.806 4.105-.806 6.382 0 3.913.806 7.211 2.417 9.897 1.612 2.687 4.05 4.03 7.317 4.03 1.848 0 3.46-.602 4.835-1.805 1.375-1.204 2.064-2.6 2.064-4.192v-.322h-7.35v-9.348h17.407v7.092c0 5.63-1.58 10.035-4.739 13.217-3.158 3.18-7.231 4.77-12.217 4.77ZM607.677 505.814v-45.129h32.428v9.283h-22.628v7.932h12.635v9.283h-12.635v9.283h23.918v9.348h-33.718ZM686.845 505.814h-8.575l-17.02-23.918c-.43-.559-1.074-1.697-1.934-3.416.13.73.194 1.87.194 3.416v23.918h-9.671v-45.129h8.962l16.568 23.66c.817 1.162 1.44 2.28 1.87 3.354-.129-.903-.193-2.041-.193-3.418v-23.596h9.799v45.129Z" />
  <path d="M343.735 382.2h90.788a95.582 95.582 0 0 1 71.607 32.272h0a82.08 82.08 0 0 0 61.492 27.712h116.23" fill="none"
    stroke="#34d399" stroke-linecap="round" stroke-linejoin="round" stroke-width="5" />
  <g fill="none" stroke="#34d399" stroke-linecap="square" stroke-width="5">
    <path
      d="M553.665 438.83V338.516a4.622 4.622 0 0 1 2.435-4.078l50.98-27.436a4.634 4.634 0 0 1 6.833 4.066V439.31M684.512 442.038v-45.814c0-1.43-.662-2.78-1.792-3.658l-32.441-25.23a4.628 4.628 0 0 0-7.477 3.658v70.25M611.843 352.419h-27.806M613.914 377.167h-37.076M567.569 326.106v-22.184M642.802 395.005h13.903M642.802 414.612h23.172M675.243 385.75v-15.388" />
  </g>
  <g fill="none" stroke="#34d399" stroke-linecap="square" stroke-width="5">
    <path
      d="M364.253 348.102a6.822 6.822 0 0 1-5.921 10.232h-30.699a6.822 6.822 0 0 1-5.9-10.232l14.64-32.363a6.822 6.822 0 0 1 13.2-.099l14.68 32.462Z" />
    <path
      d="M342.982 370.273c6.594 0 11.938-5.345 11.938-11.939M342.982 332.742v49.459M342.982 348.102a8.527 8.527 0 0 1-8.527-8.528" />
  </g>
</svg>
