<svg data-name="Ebene 1" xmlns="http://www.w3.org/2000/svg" width="860" height="860">
  <g fill="none" stroke="#34d399" stroke-linecap="square" stroke-width="5">
    <path d="m363.668 345.151 32.48-32.48a7.1 7.1 0 0 1 10.04-.003l.004.004 37.579 37.578" />
    <path d="M436.67 345.151v37.05h-71v-37.05" />
  </g>
  <path
    d="M173.09 384.611v-45.129h19.018c5.115 0 8.822 1.269 11.121 3.804 2.298 2.536 3.449 5.717 3.449 9.542 0 2.88-.827 5.511-2.482 7.897-1.655 2.385-4.093 4.008-7.317 4.867l9.283 19.02h-7.672l-8.896-18.44h-9.8v18.44h-6.704Zm6.704-24.886h12.443c2.578 0 4.47-.654 5.673-1.966 1.203-1.31 1.806-2.955 1.806-4.931 0-1.892-.57-3.514-1.71-4.868-1.138-1.354-3.062-2.03-5.769-2.03h-12.443v13.795ZM247.165 384.611l-3.61-10.38H225.31l-3.674 10.38h-6.963l16.31-45.129h6.899l16.246 45.129h-6.963Zm-5.673-16.31-5.48-15.344c-.774-2.106-1.29-3.804-1.547-5.094a59.045 59.045 0 0 1-1.547 5.094l-5.545 15.344h14.119ZM264.057 339.482h12.635c3.781 0 7.102.645 9.961 1.935 2.858 1.289 5.103 3.029 6.736 5.221a23.491 23.491 0 0 1 3.643 7.157c.795 2.578 1.194 5.33 1.194 8.252 0 2.793-.377 5.447-1.13 7.961s-1.923 4.9-3.513 7.157-3.858 4.061-6.8 5.415c-2.946 1.354-6.395 2.03-10.349 2.03h-12.377v-45.128Zm13.473 38.81c2.45 0 4.599-.483 6.448-1.45 1.847-.966 3.288-2.256 4.319-3.868a17.807 17.807 0 0 0 2.257-5.157c.471-1.827.709-3.75.709-5.77 0-4.513-1.097-8.35-3.289-11.508-2.192-3.16-5.437-4.739-9.735-4.739h-7.478v32.493h6.77ZM186.95 445.986c-3.997 0-7.457-.977-10.38-2.934-2.923-1.955-4.942-4.63-6.06-8.026l6.32-2.32c.943 2.106 2.32 3.771 4.125 4.996 1.805 1.224 3.889 1.837 6.253 1.837 2.492 0 4.48-.6 5.964-1.805 1.482-1.203 2.224-2.922 2.224-5.157 0-.946-.205-1.816-.613-2.612-.408-.794-.87-1.45-1.385-1.966-.516-.516-1.312-1.041-2.386-1.58-1.074-.536-1.966-.945-2.675-1.224-.71-.28-1.752-.655-3.127-1.129-1.72-.6-3.009-1.073-3.868-1.418-.86-.344-1.988-.913-3.385-1.708-1.397-.795-2.45-1.59-3.16-2.386-.708-.794-1.343-1.837-1.901-3.127s-.838-2.728-.838-4.319c0-3.31 1.29-6.102 3.868-8.38 2.579-2.28 6.082-3.418 10.509-3.418 3.696 0 6.737.817 9.123 2.45 2.384 1.634 3.985 3.803 4.802 6.511l-6.19 2.064c-.602-1.375-1.6-2.483-2.997-3.32s-3.149-1.257-5.254-1.257c-2.15 0-3.836.472-5.06 1.418-1.226.945-1.838 2.278-1.838 3.997 0 1.16.472 2.192 1.418 3.094s1.934 1.57 2.965 1.998c1.033.431 2.6 1.011 4.707 1.742 1.29.473 2.245.828 2.869 1.063.623.236 1.536.635 2.74 1.192 1.203.56 2.128 1.065 2.772 1.516s1.396 1.064 2.256 1.837c.86.773 1.516 1.559 1.967 2.353.451.796.838 1.763 1.16 2.902s.484 2.352.484 3.642c0 4.212-1.44 7.511-4.32 9.896-2.88 2.386-6.576 3.578-11.089 3.578ZM231.886 445.986c-2.708 0-5.148-.451-7.318-1.353-2.17-.903-3.955-2.106-5.35-3.61-1.398-1.505-2.57-3.289-3.514-5.353a26.249 26.249 0 0 1-1.999-6.317 37.796 37.796 0 0 1-.58-6.705c0-2.75.344-5.437 1.031-8.059a28.696 28.696 0 0 1 3.127-7.446c1.397-2.342 3.353-4.233 5.867-5.674 2.514-1.44 5.426-2.159 8.736-2.159 3.954 0 7.242.87 9.864 2.61 2.621 1.742 4.448 3.859 5.48 6.351l-6.124 2.837c-1.162-1.848-2.44-3.201-3.836-4.062-1.398-.859-3.192-1.289-5.384-1.289-2.15 0-4.02.516-5.609 1.547a10.329 10.329 0 0 0-3.674 4.126 22.907 22.907 0 0 0-1.903 5.383 27.227 27.227 0 0 0-.612 5.835c0 4.47 1.01 8.403 3.03 11.798 2.02 3.395 4.942 5.093 8.768 5.093 3.781 0 6.834-1.934 9.155-5.802l6.253 2.386c-2.837 6.575-7.973 9.863-15.408 9.863ZM286.62 445.213v-20.115h-20.566v20.115h-6.704v-45.13h6.704v18.697h20.566v-18.696h6.705v45.129h-6.705ZM341.806 445.213h-6.319l-19.534-30.623c-.602-.946-1.204-2.064-1.806-3.353.13 2.064.194 3.182.194 3.353v30.623h-6.704v-45.13h6.768l19.019 30.108c.473.774 1.097 1.935 1.87 3.482a34.802 34.802 0 0 1-.193-3.417v-30.172h6.705v45.129ZM356.118 445.213v-45.13h27.98v6.32h-21.276v12.377h13.733v6.318h-13.733v13.796h22.694v6.319h-29.398ZM397.572 445.213v-45.13h6.704v38.682h22.05v6.448h-28.754ZM436.446 445.213v-45.13h6.704v38.682h22.05v6.448h-28.754ZM185.339 505.814l-15.473-45.129h7.22l10.25 31.461c.646 1.978 1.118 3.698 1.42 5.158.3-1.46.773-3.18 1.418-5.158l10.122-31.46h7.156l-15.408 45.128h-6.705ZM217.252 505.814v-45.129h27.98v6.319h-21.276v12.378h13.732v6.318h-13.732v13.796h22.693v6.318h-29.397ZM258.705 505.814v-45.129h19.019c5.114 0 8.821 1.269 11.12 3.804 2.299 2.536 3.449 5.717 3.449 9.542 0 2.88-.827 5.512-2.481 7.897-1.656 2.385-4.094 4.008-7.318 4.868l9.283 19.018h-7.671l-8.897-18.438h-9.8v18.438h-6.704Zm6.704-24.885h12.444c2.578 0 4.468-.655 5.672-1.966 1.204-1.31 1.806-2.955 1.806-4.932 0-1.891-.57-3.514-1.709-4.868-1.138-1.354-3.062-2.03-5.77-2.03H265.41v13.796ZM304.994 460.685h17.084c4.986 0 8.607 1.14 10.863 3.417 2.257 2.279 3.385 5.157 3.385 8.639 0 1.935-.527 3.73-1.58 5.384-1.054 1.654-2.59 2.976-4.61 3.965 2.666.945 4.632 2.364 5.9 4.255a11.002 11.002 0 0 1 1.901 6.252c0 1.635-.268 3.192-.805 4.675-.538 1.483-1.365 2.88-2.483 4.19-1.118 1.312-2.674 2.365-4.673 3.16-1.998.796-4.31 1.192-6.931 1.192h-18.05v-45.129Zm15.988 18.632c2.75 0 4.857-.57 6.318-1.708s2.192-2.654 2.192-4.546c0-4.126-2.407-6.188-7.22-6.188h-10.574v12.442h9.285Zm2.578 20.308c2.708 0 4.643-.645 5.803-1.934 1.16-1.29 1.74-2.879 1.74-4.77 0-4.943-3.158-7.415-9.476-7.415h-9.929v14.119h11.862ZM350.96 505.814v-45.129h6.704v45.13h-6.704ZM406.468 505.814h-6.319l-19.534-30.623c-.602-.945-1.204-2.063-1.805-3.352.128 2.063.193 3.181.193 3.352v30.623h-6.704v-45.129h6.768l19.019 30.108c.473.773 1.097 1.934 1.87 3.481a34.802 34.802 0 0 1-.193-3.417v-30.172h6.705v45.13ZM420.78 460.685h12.635c3.781 0 7.102.645 9.96 1.935 2.858 1.289 5.103 3.03 6.737 5.222a23.491 23.491 0 0 1 3.643 7.156c.795 2.578 1.193 5.33 1.193 8.252 0 2.794-.377 5.447-1.129 7.962s-1.924 4.9-3.513 7.156-3.858 4.061-6.801 5.415c-2.946 1.354-6.394 2.031-10.348 2.031H420.78v-45.129Zm13.473 38.81c2.45 0 4.598-.483 6.447-1.45 1.848-.966 3.288-2.256 4.32-3.868a17.807 17.807 0 0 0 2.256-5.157c.472-1.827.71-3.75.71-5.77 0-4.513-1.097-8.349-3.289-11.508-2.192-3.16-5.437-4.738-9.735-4.738h-7.479v32.492h6.77ZM484.282 506.588c-5.115 0-9.219-1.408-12.313-4.223-3.095-2.815-4.643-7.36-4.643-13.636v-28.044h6.705v28.044c0 4.213.903 7.168 2.708 8.865 1.805 1.699 4.32 2.546 7.543 2.546s5.748-.847 7.575-2.546c1.827-1.697 2.74-4.652 2.74-8.865v-28.044h6.705v28.044c0 6.277-1.526 10.822-4.577 13.636-3.052 2.815-7.2 4.223-12.443 4.223ZM549.46 505.814h-6.317l-19.535-30.623c-.602-.945-1.204-2.063-1.805-3.352.129 2.063.193 3.181.193 3.352v30.623h-6.704v-45.129h6.769l19.018 30.108c.473.773 1.097 1.934 1.87 3.481a34.802 34.802 0 0 1-.193-3.417v-30.172h6.705v45.13ZM581.823 506.588c-3.352 0-6.329-.656-8.928-1.966-2.601-1.31-4.654-3.084-6.158-5.32-1.505-2.234-2.642-4.706-3.417-7.414-.773-2.707-1.16-5.585-1.16-8.638 0-2.837.408-5.609 1.225-8.317s1.999-5.2 3.546-7.478c1.547-2.278 3.61-4.105 6.19-5.48 2.578-1.376 5.479-2.063 8.702-2.063 3.954 0 7.103.763 9.445 2.288 2.342 1.526 4.33 3.622 5.963 6.286l-6.06 3.481c-2.536-3.652-5.652-5.48-9.348-5.48-1.891 0-3.578.345-5.06 1.032s-2.698 1.59-3.643 2.708c-.946 1.118-1.73 2.417-2.353 3.9a19.213 19.213 0 0 0-1.29 4.481 29.88 29.88 0 0 0-.354 4.642c0 4.728 1.063 8.703 3.191 11.926 2.127 3.224 5.297 4.835 9.51 4.835 2.793 0 5.081-.912 6.865-2.739 1.784-1.826 2.676-4.094 2.676-6.802v-.902h-8.123v-6.318h15.022v5.867c0 5.502-1.537 9.789-4.61 12.861-3.074 3.073-7.017 4.61-11.83 4.61ZM610.964 505.814v-45.129h27.98v6.319h-21.276v12.378H631.4v6.318h-13.732v13.796h22.693v6.318h-29.397ZM686.587 505.814h-6.318l-19.535-30.623c-.602-.945-1.204-2.063-1.805-3.352.129 2.063.193 3.181.193 3.352v30.623h-6.704v-45.129h6.769l19.018 30.108c.473.773 1.097 1.934 1.87 3.481a34.802 34.802 0 0 1-.193-3.417v-30.172h6.705v45.13Z" />
  <path d="M343.735 382.2h90.788a95.582 95.582 0 0 1 71.607 32.272h0a82.08 82.08 0 0 0 61.492 27.712h116.23" fill="none"
    stroke="#34d399" stroke-linecap="round" stroke-linejoin="round" stroke-width="5" />
  <g fill="none" stroke="#34d399" stroke-linecap="square" stroke-width="5">
    <path
      d="M553.665 438.83V338.516a4.622 4.622 0 0 1 2.435-4.078l50.98-27.436a4.634 4.634 0 0 1 6.833 4.066V439.31M684.512 442.038v-45.814c0-1.43-.662-2.78-1.792-3.658l-32.441-25.23a4.628 4.628 0 0 0-7.477 3.658v70.25M611.843 352.419h-27.806M613.914 377.167h-37.076M567.569 326.106v-22.184M642.802 395.005h13.903M642.802 414.612h23.172M675.243 385.75v-15.388" />
  </g>
  <g fill="none" stroke="#34d399" stroke-linecap="square" stroke-width="5">
    <path
      d="M364.253 348.102a6.822 6.822 0 0 1-5.921 10.232h-30.699a6.822 6.822 0 0 1-5.9-10.232l14.64-32.363a6.822 6.822 0 0 1 13.2-.099l14.68 32.462Z" />
    <path
      d="M342.982 370.273c6.594 0 11.938-5.345 11.938-11.939M342.982 332.742v49.459M342.982 348.102a8.527 8.527 0 0 1-8.527-8.528" />
  </g>
</svg>
