<svg xmlns="http://www.w3.org/2000/svg" xmlns:xlink="http://www.w3.org/1999/xlink" width="118.707" height="143.395" xml:space="preserve"><circle fill="#FDB51C" cx="59.353" cy="59.354" r="59.353"/><path fill="#FABE28" d="m17.808 101.762 41.546 41.633 41.544-41.633z"/><defs><path id="a" d="m17.808 101.762 41.546 41.633 41.544-41.633z"/></defs><clipPath id="b"><use xlink:href="#a" overflow="visible"/></clipPath><g clip-path="url(#b)"><image overflow="visible" opacity=".4" width="554" height="554" xlink:href="8991E779DFE9B86B.png" transform="translate(-6.653 -.373) scale(.2387)"/><circle fill="#FDB51C" cx="59.353" cy="59.354" r="59.359"/></g><circle fill="#FABE28" cx="59.353" cy="59.354" r="59.353"/><circle fill="#FFF" cx="59.353" cy="59.354" r="52.73"/><g fill="#FABE28"><path d="M22.986 70.673V33.302h26.267v7.634H32.169v8.062h15.482v7.634H32.169v14.041h-9.183zM61.419 70.673h-9.183V33.302h9.183v37.371zM86.292 51.667 98.57 70.673h-9.609l-7.475-11.585-7.422 11.585h-9.662l12.279-19.061-11.743-18.31h9.504l7.047 10.944 7.047-10.944h9.557L86.292 51.667z"/></g><path fill="#FABE28" d="M35.73 88.046h-1.003V75.553l-4.801 8.881h-1.135l-4.801-8.881v12.493h-1.004V73.757h1.07l5.302 9.819 5.303-9.819h1.069v14.289zM44.176 88.046h-1.048v-5.531l-5.477-8.758h1.113l4.887 7.84 4.889-7.84h1.113l-5.478 8.758.001 5.531zM57.381 88.266c-1.8 0-3.371-.569-4.546-1.646-1.833-1.683-1.987-3.808-1.987-5.841 0-2.032.154-4.158 1.988-5.84 1.188-1.088 2.759-1.663 4.546-1.663 1.757 0 3.431.622 4.591 1.705 1.103 1.033 1.459 2.326 1.563 3.228l.062.534h-3.79l-.045-.436c-.046-.447-.206-.785-.548-1.169-.369-.425-1.035-.666-1.833-.666-.721 0-1.413.272-1.897.746-.878.838-.878 2.411-.878 3.561s0 2.723.873 3.555c.49.481 1.181.754 1.903.754.776 0 1.459-.254 1.828-.68.331-.369.504-.76.554-1.232l.045-.437h3.79l-.062.535c-.149 1.287-.705 2.439-1.562 3.243-1.191 1.112-2.865 1.749-4.595 1.749zM69.391 88.015h-3.758V73.523h3.758v14.492zM79.275 88.015H75.56V76.776h-4.375v-3.253h12.463v3.253h-4.373v11.239zM93.686 88.015H89.95v-5.542l-5.497-8.949h4.101l3.35 5.367 3.35-5.367h3.979l-5.543 8.95v5.541h-.004z"/></svg>