<svg width="40" height="40" viewBox="0 0 38 38" fill="none" xmlns="http://www.w3.org/2000/svg">
<g id="basics/icon/icon-search">
<path id="icon" fill-rule="evenodd" clip-rule="evenodd" d="M19.0706 13C15.7179 13 13 15.7179 13 19.0706C13 22.4233 15.7179 25.1412 19.0706 25.1412C20.5531 25.1412 21.9115 24.6098 22.9656 23.7271L26.0808 26.8423L26.1554 26.9046C26.3652 27.05 26.6554 27.0292 26.8423 26.8423C27.0526 26.632 27.0526 26.2911 26.8423 26.0808L23.7271 22.9656C24.6098 21.9115 25.1412 20.5531 25.1412 19.0706C25.1412 15.7179 22.4233 13 19.0706 13ZM22.6192 22.5841C23.5126 21.6819 24.0643 20.4407 24.0643 19.0706C24.0643 16.3127 21.8286 14.0769 19.0706 14.0769C16.3127 14.0769 14.0769 16.3127 14.0769 19.0706C14.0769 21.8286 16.3127 24.0643 19.0706 24.0643C20.4407 24.0643 21.6819 23.5126 22.5841 22.6192C22.5897 22.6131 22.5954 22.6071 22.6013 22.6013C22.6071 22.5954 22.6131 22.5897 22.6192 22.5841Z" fill="black"/>
</g>
</svg>
